<svg xmlns="http://www.w3.org/2000/svg" viewBox="0 0 18 46.4">
  <g stroke="currentColor" stroke-width="2">
    <path fill="none" d="M5.3 26.5c-1.5-5.6-3.1-11.3-3.8-14.7s-.6-4.4-.3-5.4a7.7 7.7 0 0 1 2.2-3.3 9.1 9.1 0 0 1 4.1-1.9 7.2 7.2 0 0 1 3.6.1 8.8 8.8 0 0 1 3.5 2A9.1 9.1 0 0 1 16.7 7a9.2 9.2 0 0 1 0 4.7c-.5 2.2-1.4 5.4-2.1 8s-1.4 4.7-2 6.8"/>
    <path fill="currentColor" d="M12.7 26.4h1.2v9.1l1 2.3v7.6h-12v-7.6l1-2.3v-9.1h1.4M5.3 26.4h7.4"/>
    <ellipse cx="9" cy="9.1" fill="none" rx="4.2" ry="4.5"/>
  </g>
</svg>
