<svg xmlns="http://www.w3.org/2000/svg" viewBox="0 0 56.2 52.6">
  <path d="M24.5 19.2c.7 5.7 3.2 1.5 3.1 8.7-.1 12 2.3 14.7-8 14.7-3.8 0-7.7.1-11.5-.1-1.1-2.8-1-5.5-5.2-4.6S0 42.2 0 45.6s-.3 6.3 3.1 6.9 4.3-2.4 5-5h16.3s7.6 6.5 10.7-.3c2-4.6-2.2-6.3-2.4-7.7V23.9c1.8-1.3 1.6-.9 2.7-3.2 3.9.3 10.2 1.9 13.7 1a9.8 9.8 0 0 0 7.1-8.8C56.4 2.6 44.1 3.1 35.5 2S15.3-2.8 10.7 4.4a8.6 8.6 0 0 0 1.5 11.2c2.8 2.8 7.5 3.1 12.3 3.6z"/>
  <path fill="#fff" d="M44.3 5.9A7.5 7.5 0 1 0 48 20.4c9.8-2.4 5.7-16.8-3.7-14.5z"/>
</svg>
