<svg xmlns="http://www.w3.org/2000/svg" viewBox="0 0 151 134.6">
  <path d="M0 4.2v2.3L4.5 12l5.1 4.5 5.1 4.5 4.7 4.9c12.8 16.6-6.4 23.3-11.6 37s4.5 27.6 17.3 32.2c1 .4 2.7.7 3.6 1.2s.9 3.7 4.1 4.1h9a25 25 0 0 1 .2 5.5c-.2 4.7 3.3 9.7 5.4 11.6a18.8 18.8 0 0 0 11.9 4.8H92c.4 2.5-.2 3.8.8 6.3 3.3 8.8 18.1 8.1 18.6-3.7.2-4.5 0-9.3 0-13.8 0-6.4.6-52.6-.6-54.5-1.6-6.6-12.3-9.9-17.4-2-2 3.1-.9 4.4-1.5 7.7H74.8c-10.7 0-22.2-2.1-29.1 6.2-4.3 5.3-3.6 8.2-4.3 13.2-5.8.5-11.1-1.7-12.7 4A16.8 16.8 0 0 1 18 77.1c-2.7-5.8-.8-10.5 2-14.8 5.3-8 13.3-12.1 14-24.3s-7.6-20-13.3-25c-3.4-3.1-6.9-6-9.9-9.1S5.9-2.2 1.9 1.5C.6 2.6.8 3.1 0 4.2zM151 75.6v-3c-.8-1-.5-1.8-1.9-3.2a6.6 6.6 0 0 0-3.1-1.9c-1.7-.5-17-.3-20.1-.3s-7-.2-9.9.1V81c6.3.4 13.8.1 20.2.1s10 .9 12.9-2.3c.8-.7 1.2-2.2 1.9-3.2zM145.5 116.7a5.8 5.8 0 0 0 3.7-1.9c1.1-1.2 1-2.1 1.8-3.4v-2.8l-1-2c-1-1.7-3.2-3.5-5.5-3.2H116V117c7.4-.2 18.1 0 26.1 0 .9 0 2.8-.4 3.4-.3z"/>
</svg>
