<svg xmlns="http://www.w3.org/2000/svg" viewBox="0 0 170.8 172.3">
  <g fill="none" stroke="currentColor" stroke-width="5" stroke-miterlimit="10">
    <path d="M98.3 34.3c-6.8 0-19.1-.5-25 0s-6.8 0-9.1 1.8a96.2 96.2 0 0 1-10 6.8 24.4 24.4 0 0 1-10 2.7c-3.6.5-9.1.9-13.2 1.4s-7.3 1.4-9.5 2.3a17 17 0 0 0-5.9 4.1c-1.8 1.4-2.7 3.6-3.6 7.3s-1.4 8.6-1.8 18.6-.9 25.5-.9 33.2-.9 8.2-1.4 8.6a8.5 8.5 0 0 0-2.3 3.2 5.1 5.1 0 0 0-1.4 3.2 8 8 0 0 0-.9 3.6v6.4c0 2.3-.5 4.1 0 5.9s1.4 3.6 1.8 5.5a7.5 7.5 0 0 0-2.3 3.6 4.8 4.8 0 0 0 .5 4.5c6.4 11.8 67.7 12.7 80 12.7s80.5-3.6 81.4-13.2c.5-1.4 0-3.6-.5-5a13.5 13.5 0 0 0-1.8-3.6c1.8-.5 3.2-.9 4.1-2.7a16.1 16.1 0 0 0 1.8-7.7 68.1 68.1 0 0 0-.9-9.5 18.5 18.5 0 0 0-2.3-4.5 10.8 10.8 0 0 1-3.2-6.8c-.5-3.2-.5-8.6-.9-17.3s-.5-21.4-.9-29.1-1.4-10.9-3.6-13.6a22.1 22.1 0 0 0-9.1-7.7 64 64 0 0 0-14.1-2.7 87.3 87.3 0 0 1-12.3-.5c-3.2-.9-4.5-1.4-6.8-3.2a37.2 37.2 0 0 1-6.4-5.5c-1.7-1.4-3.1-2.3-9.5-2.8z"/>
    <path d="M75.1 7.4C66.5 6 57.8 4.7 52.4 4.7s-6.4.9-7.3 2.7-1.4 4.5-1.8 6.8v5.9c.5 1.4.9 3.2 1.8 4.1s1.4 1.8 5 2.3a136 136 0 0 0 13.6-.5l11.8-1.4zM98.2 7c10-.9 19.5-2.3 25-2.3s6.4.9 6.8 2.3.5 2.3.5 5.5A74.5 74.5 0 0 1 130 23c-.5 2.7-.9 3.6-2.7 4.1a34.8 34.8 0 0 1-10.5.5c-5-.5-12.3-1.4-19.5-2.7zm-4.9 25.8l-14 .9v-6a11.6 11.6 0 0 1-4.2-5.1 33.9 33.9 0 0 1-.5-9.8 19.7 19.7 0 0 1 2.8-7.5 7.5 7.5 0 0 1 5.1-2.4 12.1 12.1 0 0 1 6.1 0 19 19 0 0 1 5.1 1.9 8.2 8.2 0 0 1 3.3 5.6 28.5 28.5 0 0 1 0 9.4c-.9 3.3-2.4 5.7-3.7 8.4z"/>
    <path d="M8.8 117.1c27.7 8.2 53.6 10.9 78.6 10.9s49.1-5.5 74.6-11.4M18.3 51.2c3.2.9 6.4 2.3 10.9 3.2 29.5 6.8 92.7 2.3 110.9-.5s9.5-1.4 12.7-1.8"/>
  </g>
</svg>
