<svg xmlns="http://www.w3.org/2000/svg" viewBox="0 0 112.1 150">
  <path d="M2.6 150h84.2a5 5 0 0 0-2.7-4 23.7 23.7 0 0 0-4.5-2.4c-5.2-2.1-11-3.1-16.5-3.9s-1.8.2-5.2-1.7-10.1-2.5-10.6-3-15.2-33-15.9-34.5l-11.8-26c-1.4-3-1.8-3-1.1-4.3 3.5-6.9-3.3-2.4 7-10.3s23.9-19.7 35.7-29a33.5 33.5 0 0 0 2.9-2.4 33.9 33.9 0 0 1 3.3-2.5 8.1 8.1 0 0 1 2.6 2.3c1.5 1.6-1.8 4.3-.1 13 1 5.1 3.9 10.5 6.8 12.9 1.4-.7 8-8.3 9.6-9.2 2 1.1 3.9 3.5 8.9 3.4a13.3 13.3 0 0 0 8.8-3.7 12.6 12.6 0 0 0 2.7-13.8c-.8-1.8-1.8-2.7-2.4-3.9s7.4-7.1 8-8.4c-2.6-3.1-7.4-5.3-11.3-6.4a26.4 26.4 0 0 0-12-.1c-5.4 1.2-1.7 2.6-11.4-7l-2-2a3.4 3.4 0 0 0-1.2-1c-1.7 1.1-3.1 3.3-4.8 4.5L63 0h-.3c-.8 1.4-4.6 4.6-6 6.2a32.1 32.1 0 0 0 3.2 3.2 36.7 36.7 0 0 1 3.3 3.5c-.3.8-3.4 3.7-4 4.2s.2.3.5 1.1c-2.3 2.2-4.6 3.6-7.3 6l-7.4 6c-9.8 7.6-19.5 16.1-29.5 23.9-3.4 2.7-1.8 1.9-4.6 1.6a9.9 9.9 0 0 0-4.5 19.1c1.1.4 1.7.1 2.3 1.1L15 89.8c1.4 3 2.9 6.2 4.2 9.2 2 4.8 16.5 35.6 16.7 36.9s-3 1.2-4.1 1.7-1.6 1.4-4.3 1.7a83.3 83.3 0 0 0-10 1.7 47.7 47.7 0 0 0-8.8 2.9c-2.7 1.5-5.8 3-6.1 6.1z"/>
  <path fill="#fff" d="M89.5 44.1c2 1.1 3.4 2.6 7.1 2.5 10-.3 12-12.9 6.7-16.7l-12.1 12c-.9.8-1.5 1.1-1.7 2.2z"/>
</svg>
