<svg xmlns="http://www.w3.org/2000/svg" viewBox="0 0 52.5 51.2">
  <path d="M52.2 41.6l-.4-.5a5.4 5.4 0 0 0-3.4-.8H32.2v-5l.7-.4a17.1 17.1 0 0 0 4.5-2.6c7.8-5.8 9.8-18.4 1.3-27.2a15.8 15.8 0 0 0-3.8-2.9 22.9 22.9 0 0 0-6.3-2 18.9 18.9 0 0 0-6 .3l-1 .2a17.8 17.8 0 0 0-8.2 4.7A18.2 18.2 0 0 0 17.6 34a17.9 17.9 0 0 1 2.6 1.3v4.9c-2.1.3-12.7.1-16.2.1a5.1 5.1 0 0 0-3.4.9l-.4.4A1.5 1.5 0 0 0 .1 43l.4.6a2.8 2.8 0 0 0 1.5.7h48a2.9 2.9 0 0 0 1.7-.7l.5-.6a1.5 1.5 0 0 0 0-1.4zM14.7 20.1a11.9 11.9 0 1 1 13.8 9.6 11.8 11.8 0 0 1-13.8-9.6zM.4 51.2h52c0-4.7-1.2-4-5.6-4h-41c-4.3 0-5.4-.6-5.4 4z"/>
  <path d="M33.3 9.7c-1.7.9-4.5 3.6-5.4 4.1s-1.4.1-2.7.5c-3.4.9-3.7 5.9-.5 7.4a3.9 3.9 0 0 0 4.5-1c1.8-1.9.3-2.7 1.7-4.5s3.9-4.5 4-5.5-.7-1.5-1.6-1z"/>
</svg>
