<svg xmlns="http://www.w3.org/2000/svg" viewBox="0 0 37.4 38">
  <g >
    <path fill="none" stroke="currentColor" stroke-width=".75" stroke-miterlimit="10" d="M20.2 18.3a3.5 3.5 0 1 1-6.9-1 3.6 3.6 0 0 1 4-3 3.6 3.6 0 0 1 2.9 4zM.3 6.7v1.4a3.6 3.6 0 0 1 .1 1.1c.1.3.2.8.3 1 .9 2 2.1 3 4.1 4.3a22.7 22.7 0 0 0 7.9 3.3l.2 1.1a17.4 17.4 0 0 0-2.8 3.1 5.4 5.4 0 0 1-.9 1.2l-1.4 2.6a9.1 9.1 0 0 1-.7 1.4c-.2.4-.3 1.2-.5 1.5a6.5 6.5 0 0 0-.2 2.4c.3 6 8 8.9 12.3 4.7 2.8-2.8 2.5-6.5 2-10.3a17.9 17.9 0 0 0-.9-4l-.5-1.2.4-.5 2.4.8a25.1 25.1 0 0 0 8.6.5c3.6-.6 7.5-4.5 6.3-8.1a8.2 8.2 0 0 0-.6-2.2A14 14 0 0 0 35.2 9c-2.5-2.6-5.7-2.9-9-1.4a28.5 28.5 0 0 0-3.9 2.2 18.3 18.3 0 0 0-2.6 2.1 13.7 13.7 0 0 0-1.6 1.8c-.1.3-.2.5-.6.5a5.3 5.3 0 0 1-.1-1.3 23.4 23.4 0 0 0-2.7-7.4A10.2 10.2 0 0 0 10.5 1 7 7 0 0 0 5.4.6 7.9 7.9 0 0 0 .9 4.3L.4 5.5z"/>
    <path d="M16.5 16.5a1.4 1.4 0 1 0 1.7 1 1.5 1.5 0 0 0-1.7-1z"/>
  </g>
</svg>
