<svg xmlns="http://www.w3.org/2000/svg" viewBox="0 0 89.2 102">
  <g fill="none" stroke="currentColor" stroke-width="2" stroke-miterlimit="10">
    <path d="M26.6 15.3V49h-1V22.5a4.9 4.9 0 0 0-6.9-4.7c-3.8 1.5-3.1 6.3-3.1 9.5v25.2c-.8-.5-5-5.9-6.4-7.1-4-3.4-8.2.8-8.2 4.1s3.7 8.9 5.1 11.8a8.2 8.2 0 0 0 .7 1.3l7.5 14c1.2 2.3 1.6 2.6 1.2 4.8s-1.7 18.7-1.4 19.6h46.6c.4-.1.6-.2.7-.4s-1.7-18.9-1.8-20.2c-.3-5.5 0-11.9 0-17.5V45.4c0-3.8.5-14.5-.5-17-1.8-4.6-9.5-3.7-9.5 2.1V49h-2V22.7a5 5 0 1 0-10-.4V49h-1V14.8a4.9 4.9 0 0 0-8.1-3.9 6.2 6.2 0 0 0-1.9 4.4zM62.6 37.1v39.6c0 .7 1.2 17 1.6 18.8s-.1.3.4 1 .9-.7 1.1-1.6l2-6.8 2.6-8.9c2.8-9.8 8.6-23.5 12-33.9.9-2.6 5.9-15.6 5.9-17a5 5 0 0 0-9.7-1.6l-3.1 8.6c-.5 1.5-3 7.8-3.1 8.8s-.6-.3-1.6-.4 6.7-19 7.1-20 2.2-5.3 2.2-7.5a4.5 4.5 0 0 0-1.4-3.1 4.8 4.8 0 0 0-6.7-.1 6.9 6.9 0 0 0-1.7 3c-.7 1.7-7.6 20.4-7.6 21.1zM54.7 22.5c1.6 1 2 .1 4.6 2.2s2 3.3 2.9 4 1.8-3.4 2.5-5.2l2-5.7c.3-1 .7-1.8 1-2.8s.7-1.9 1.1-2.9.6-1.9 1-2.9a8.4 8.4 0 0 0 .9-3.7A4.8 4.8 0 0 0 66.1 1h-.9a5 5 0 0 0-4.3 3.6l-4.3 11.9c-.3 1.2-1.9 5.1-1.9 6z"/>
    <path d="M45.4 13.9c0 .9.3.9 1 1.2 3.7 1.9 3.5 5.5 4.6 9.9.8 0 .7.4 1.4-1.4s.4-1.3.7-2.1l2.9-8.1c1-2.9 2.5-5.6-.2-8.2a4.8 4.8 0 0 0-6.5-.1 5 5 0 0 0-1.6 2.6 36.5 36.5 0 0 0-2.3 6.2z"/>
  </g>
</svg>
