<svg xmlns="http://www.w3.org/2000/svg" viewBox="0 0 185.4 235.1">
  <path d="M41.8 143.8zm0 0c-2.5-1.7-9.4-10.3-11.7-13.2-4.3-5.3-6.5-9.5-9.6-15.3-6.3-11.7-9.9-26.7-9.9-40 1 .3 11.9 6.5 13.6 7.5a9.8 9.8 0 0 0 2 1c0 17.6 3.5 30.9 9.9 46.7.9 2.3 2 4.5 2.8 6.7zM0 71a108.6 108.6 0 0 0 5.8 35.8c1.2 3.4 2.4 6.4 3.8 9.6s2.9 6 4.5 8.9 3.4 5.6 5.2 8.2a137.8 137.8 0 0 0 8.8 11.3l10.2 9.8.8.8 6.7 5.1 4 2.7a115.9 115.9 0 0 0 17.5 9.2l9.8 3.5a103 103 0 0 0 22.4 4.4c10.1 1.1 19.6.2 29.5-1.4a99.9 99.9 0 0 0 14.6-3.8l6.7-2.5a116.7 116.7 0 0 0 18.2-9.5l3.6-2.5c1.4-.9 9.8-7.1 10.1-8.5a12.6 12.6 0 0 1-2.7-1.4l-5.4-2.8-2.7-1.5-2.6-1.4-2.7-1.4-2.7-1.4-32.4-17.1c-7.3-4.1-16.7-8.9-24.3-12.8l-5.4-2.9-2.7-1.4a15.1 15.1 0 0 0-2.9-1.4c.1-.8 2.4-5 2.8-5.7 1.8-2.9.7-2.9 2.9-3.4a10.4 10.4 0 0 0 6.5-4.3c7.4-10.3-4.9-21.8-13.9-12.8-2.6 2.6-4 7.6-2.8 11s1.6 1.2-1.4 6.3c-.9 1.5-1.5 2.9-2.3 4.4l-13.4-7-2.8-1.5-2.3-1.3-29.8-15.7c-5-2.5-11.4-6.2-16.3-8.6l-8.1-4.3c-2-1-12.7-7-13.8-7.1l-.7 7c-.2 1.2 0 2.4-.2 3.6A23.8 23.8 0 0 0 0 71zM23.6 229.6zm0 0l2.3-5.8c.8-2 1.7-3.9 2.4-5.9 3.4-9.4 6.9-17.4 9.8-27.6l1-3.3c.4-1.2 1.7-5.5 1.8-6.5 1.7 1.2 5.1 3.6 6.7 4.5l-2.1 6.5c-.7 2.1-1.4 4.2-2.3 6.2s-1.6 4.1-2.5 6l-1.4 2.9a104 104 0 0 1-9.6 16.2l-.9 1.1a34 34 0 0 1-5.2 5.7zm-10.8 5.6l92.3-.2c0-.6-4.2-9.1-5-10.8-2.6-5-7.5-17.1-9.4-22.3-.7-1.9-1.3-3.8-2.1-5.8a42.9 42.9 0 0 1-2-6c-3.5-.1-17.2-4.1-20.8-5.6l-9.2-4a92.8 92.8 0 0 1-11.1-6.7l-7.6-5.8-2.7 8.6c-1.8 5.6-5.1 16.8-7.1 21.7-.6 1.5-.9 2.9-1.5 4.4-1.4 3.7-4.8 13.2-6.5 16.6l-.9 2-.9 2zM68.6 7.1l2.8 8.5a14.9 14.9 0 0 0 3.1-1.2 69.4 69.4 0 0 1 24.9-5.3c8 0 11 .2 18.7 2a78.1 78.1 0 0 1 28.6 13.6l12.1 11.1c6 6.5 12.2 16.8 15.5 24.9l1.2 3.1c.4 1 2 5.5 2 6.5l7.9-2.6c-1.1-4.8-3.3-9.3-5.1-13.8a63.1 63.1 0 0 0-3.2-6.3c-1.2-2.2-2-3.8-3.5-6A84.7 84.7 0 0 0 160.8 26l-3.6-3.5-1.3-1.2a92.2 92.2 0 0 0-10.9-8c-8.3-5-17.1-9.2-27-11.2-12.4-2.4-22-2.9-34.7.1a76.3 76.3 0 0 0-11.2 3.4l-1.7.7z"/>
  <path d="M75.5 28.6a63.1 63.1 0 0 0 2.6 7.9c5.4-2.9 14.9-5.1 20.9-5.1 9.5 0 15.9 1 23.9 4.7 1.3.6 2.8 1.3 4 2a55.5 55.5 0 0 1 7.4 5l6.4 6a63.3 63.3 0 0 1 8.1 10.6 75.3 75.3 0 0 1 6 12.5c.5 1.4 1 3.5 1.6 4.7s5.8-2 7.7-2.4C162.3 66.7 155.8 55 151 49l-8.8-9.3a79.7 79.7 0 0 0-9.2-6.8 67.8 67.8 0 0 0-12.1-5.9 60.9 60.9 0 0 0-31.6-2.8 58.7 58.7 0 0 0-13.8 4.4z"/>
  <path d="M81.8 48.1a51.7 51.7 0 0 0 2.4 7.7 22.2 22.2 0 0 1 3-1.2 16.7 16.7 0 0 1 3.5-1c7.9-1.6 17.1-1.6 24.4 2.2a34.5 34.5 0 0 1 9.4 6.8 40 40 0 0 1 5.4 6.8l5.5 10.6a29.5 29.5 0 0 1 1.1 3.1c1.2 0 6.4-2 8.1-2.4-.6-1.3-1.4-4.4-2.7-7.3a48.5 48.5 0 0 0-5.5-9.3 47.4 47.4 0 0 0-9.9-10.1 50 50 0 0 0-7.5-4.8l-1.8-.8c-7.6-3.8-19.7-5.2-28.3-2.7z"/>
</svg>
