<svg xmlns="http://www.w3.org/2000/svg" viewBox="0 0 98.1 151">
  <path d="M72.2 43.5C77.9 38 74.8 39 82.4 39H98v-6H68c-1.3-2.6-3.1-5.5-4.5-8.2-2.1-4.7-12.6-23-13.2-24.8h-2.6c-.7 1.8-2.6 4.8-3.5 6.6L29.9 32.5c-1.1.6-26.2-.3-29.9.2v5.8c3.2.5 15.2-.1 19.9.1 1.2.1 1.1.2 1.8.9C31.3 49 30 45.3 30 53.6v11.3s.8 3.4-2.1 3.3-26-.1-27.9.1v5.8c3.1.3 7.1.1 10.3 0s2.5.6 4 1.5c3.6 2.3 13.2 8.9 15.6 10.2L14.8 151h5.9s2.4-3.8 3.4-5.2l10.5-15.5 7-10.3 6.9-10.1c1 .8 19.5 28.3 21.1 30.7l6.9 10.4h6.1L67.9 86.1a32.1 32.1 0 0 0 3.1-2l9.1-6.2 3-2c1.6-1.1 1.5-1.5 3.8-1.5a91.6 91.6 0 0 0 10.1-.1V69H67.8c-.5-3.7 0-14 0-18.6s-.2-2.4 4.4-6.9zM29.4 79.8c-.9.1-8.3-5.5-8.7-5.9h8.8zM68 73.9h8.5c-.5.6-7.5 5.6-8.6 5.6zM53.3 58.3A104.1 104.1 0 0 1 62 51v14.5c-1.1-.6-8.3-6.6-8.7-7.2zm2.3 9.7H41.7c.5-1 6.5-5.5 7.1-5.8l5.2 4.2a5.1 5.1 0 0 1 1.6 1.6zM42.1 21.2c.6-1 5.8-10.8 6.8-11.6 1.6 3.2 12.4 22 12.6 23.4h-26c.3-1.2 5.6-10 6.6-11.8zM61.9 39L48.6 53.8 35.4 38.9zM35 51c.7.4 8.2 6.6 8.6 7.3l-2.2 2c-1.2 1-5.8 5-6.5 5.2zm6.6 59.5l-2.6 3.7-8.9 12.7c-1.1 1.6-5.5 8.2-6.5 8.8l11.7-40.5c1.4 1.2 8.8 11.4 8.9 11.6a39.1 39.1 0 0 1-2.6 3.7zm-6.5-26.8l.2-9.8h26.6l-.3 11.5-13.1 15.1zm38.5 52.1L52.8 107l4.4-5.9 4.5-5.8c.4.5 11.8 38.7 12 40.5z"/>
</svg>
