<svg xmlns="http://www.w3.org/2000/svg" viewBox="0 0 79.3 150">
  <path d="M11.8 16.6c1.8-.3 43.5-.1 46.6-.1s8.4-.7 10.4 1.3 1.3 7 1.3 10.2v105.4c0 3.9.1 7.1-3.6 7.9-1.9.4-43.6.1-46.7.1-12.1 0-11.7.6-11.7-11.6V24.5c0-2.7-.5-7.1 3.7-7.9zm-10.7.7l-.6 1.3C-.3 22.4.1 31.4.1 35.9v89.8c0 5.3-.7 12.3 1.2 16.6 3 6.7 8.8 6.8 10.4 7.6h55.2c1.5-.7 4-.3 7.2-2.9a12.1 12.1 0 0 0 4.3-6.1c1.3-4 .7-14.5.7-19.5V40c0-5.9.5-14.5-.2-20.1a11.8 11.8 0 0 0-3.3-6.9c-2.5-2.8-3.5-2.6-6.3-3.9-5.1-.8-10.1 0-15.1-.5V0h-30v8.5c-2.5.8-10.6-.6-15.2.9-3.1 1-7.6 4.7-7.9 7.9z"/>
  <path d="M13.1 136h52v-19l-52 .1V136M13 112h52.1V93h-52l-.1 19M13.1 89h52L65 70H13.1v19M0 18.1l.6-1.3c-.6.6-.4.4-.6 1.3z"/>
</svg>
