<svg xmlns="http://www.w3.org/2000/svg" viewBox="0 0 274.8 322.4">
  <path fill="none" stroke="currentColor" stroke-width="17" stroke-miterlimit="10" d="M11.9 247.9c4.6-5.6 14.2-11.6 19.8-20.5s7.5-20.9 8.8-41 1.8-48.8 4.8-68.8 8-31.7 18.4-43.6 25.8-23.9 46.6-29 46.7-2.7 64.4 3.7 27.5 17.2 35.7 27.5 15 20.2 18.3 37.4 3.2 41.6 3.5 61.4 1.1 35.2 7 46.7 16.7 19.5 22.2 25.6 5.4 10.2 4.1 13.2-3.9 4.5-43.7 5-116.7 0-158.5-.4-48.7-.5-52.2-3.3-3.8-8.1.8-13.9zM110.3 41.9c0-9.9-.1-17 3.3-23.3s10.2-9.2 17.4-9.9 14.5.7 19.6 4 8.1 9 9.3 14.6 1.1 8.5.8 14.4zM94.2 267.6a74.4 74.4 0 0 0 3 16.3 37.2 37.2 0 0 0 9.9 17.3 45.6 45.6 0 0 0 21.5 11.8 45.1 45.1 0 0 0 24.6-2 35.9 35.9 0 0 0 16.5-12.1 42.4 42.4 0 0 0 7.8-16.5c1.4-5.5 4.3-13.7 4.5-16.4 6-.8-2.7 2.7-2.7 2.7z"/>
</svg>
