<svg xmlns="http://www.w3.org/2000/svg" viewBox="0 0 298.6 222.1">
  <path d="M298.4 90.1V67.9c0-9.1.2-6.1-3.3-12.1 1-2.1 4.2-5 2.8-6.7s-10.1 4-13.7 6l-26.7 15.4c-3 1.7-3.8 3.5-6.8 1.6l-36.6-21.4c-3.3-1.9-2-5.4-2-13.3s-.5-14.7-.1-21.6c4.1-3.1 6-.9 3.8-13.2-.8-4.8-4.5-1.6-7.1-.2l-49 28.4-7 4.1c-18 9.8-37.9 22.2-56.1 32.5l-56 32.4-14 8.1L5.5 120c-3.5 2.1-.5 2.8-1 9l-4.3 2.4c-.1 7.1-.5 37.8.4 40.1s2.4 2.4 4.1 3.3l9.6 5.6 66.6 38.8c7.8 4.4 3.5 4.4 20-4.9L296.8 101c2.5-1.7 1.6-6.3 1.6-10.9zM53.3 96.3l6.3-3.7c25.3-13.8 52.4-30.9 77.8-45l64.7-37.5 6.3-3.7 3.3-2 2.6-1.4c.9 1.8 1 6.5 1 8.6l-51.6 30.1c-34.5 19.7-69.3 40.6-103.8 60.1L8.5 131.5l-.8-9zM3.7 167.6c0-6.4-.7-29.1-.1-33.3 4.8-1.2 3.5-.1 7.8-2.6l6.4-3.7c20.7-11.5 43.9-26 64.4-37.3 16.2-8.9 34.9-20.4 51.4-29.8l19.3-11.2 6.3-3.7c8.8-4.7 17.3-10 25.8-14.8L204.3 20c1.8-1 4.5-2.8 6.1-3.4v31.3zm82.7 17.8l-.2 32.7c-.9.2-47.9-27.6-55.5-32-1.5-.9-3.3-1.8-5-2.9L5.6 171.3c3.4-1.4 39.3-22.7 46.1-26.6l15.3-9 46-26.7c5.1-3.1 10.3-5.8 15.4-8.9l7.6-4.5 53.6-31.2c5.2-3 10.4-5.9 15.4-8.9s5.8-4.3 7.9-3.6l37.9 22.3-42.7 25c-38.8 21.8-79.6 47.1-118.2 68.4-2.9 1.6-2.9 1.4-4.4 4.1s-2.6 3.4-2.8 6 3.7 2.3 3.7 7.7zm.7-8.4c2-1.4 4.6-2.8 6.6-3.9l45.1-26.1c8.5-5 17.3-10 26.1-15.1 4.3-2.6 8.8-5 13-7.6l38.7-22.3c8.7-4.9 16.7-10 25.7-14.9L294 57.2l2 2.4c-2.7 2.4-45.3 26.3-51.9 30.3-24.5 14.9-53.2 30-77.8 45l-25.7 14.9-13.1 7.5-38.8 22.1a9.4 9.4 0 0 1-1.5-2.4zm210.3-81.3c-1.7 1.2-4.5 2.7-6.5 3.8l-19.4 11.3c-8.7 4.9-17.5 9.9-26 15.2l-6.7 3.9-148.4 86.4v-32.9l207-119.9z"/>
</svg>
