<svg xmlns="http://www.w3.org/2000/svg" viewBox="0 0 476.2 484">
  <path d="M320.1 246c-25.3 0-41.1-17.6-55.2-34.8-8.9-10.8-20-31.4-21.7-46.3-1.3-11.8 1.3-13.2 2.9-19.9-4.3 1.2-16.8 10.8-21.2 13.8-19.1 13-41.8 32.7-59.5 47.5-9.4 7.8-18 17.6-27.1 25.9l-51.9 55c-22.3 26.2-34.7 44.1-54.3 71.7-9.9 13.9-18.4 28.3-27.6 43.4-2.8 4.6-4.7 6.1-4.5 13.6.8 27.5 59.5 70.6 93.1 68 16.6-1.3 17.9-16 32.8-38.2 4.9-7.3 9.3-14.6 14.5-21.5 11.5-15.3 17.6-24.7 31-41a709.5 709.5 0 0 1 51-56l18.5-17.5c6.2-5.2 11.8-11.7 18.3-16.7 12-9.3 26.2-22.3 40-32z"/>
  <path d="M325.1 148zm-14-21zm14 20.9c2.7-4.1 6.6-7.1 10.3-10.7l35-38.9c2-2.4 3.3-3.1 5.3-5.7 3.7-4.8 27.3-32.3 28.4-36.6a20.9 20.9 0 0 0-6-1c3.2-6 7.6-8.9 8-14-3.7-1-4.7-3-9-4-2.4 4.5-5.3 7.9-8 12l-4.8-4.2c-4.2 2.9-6.3 6-9.5 9.9l-44.4 52.6c-3.4 3.9-5.7 5.6-9.1 9.9a58.3 58.3 0 0 1-10.1 9.8l11-27c4.8-10.8 29.1-74.8 30-86h-7c1.1-2.2 2.7-9.9 3-13-4.5-.1-4-1-9-1a52.7 52.7 0 0 0-3 12 26 26 0 0 1-7-3l-29 80.1c-4.1 11.3-23 54.6-29.9 66.1-1.1 1.9-1.4 2.3-2.5 4.5l-2.7 4.3c0-6-1.9-9.8.7-15.4s6.8 1.2 9.4-9.6c-7.1-3.4-18.3-5.2-23.8 1.2s-4.8 17.4-2.8 26.3c6.6 28.4 31.1 58.8 55.5 72.5 6 3.3 16.9 7.6 24.7 2.6s7.4-11.9 7.4-24.6c-11.8 0-2.4 7.1-12.7 10.4-6.6 2.2-13.2-3.2-18.3-4.4 4-5.5 46.9-19.5 55.6-22.4s13.2-4.7 20.4-6.6c28.6-7.9 53.3-15.1 83-22l-1.2-8h13.2a29.6 29.6 0 0 0-3-11 97.1 97.1 0 0 1-11 2v-7l-46.8 11.2c-22.7 5.6-110.1 33.6-131.2 44.8-1.8-3.5-3.1-4.5-5-8 19.8-9.5 42.7-17.9 64.7-30.3l51.1-27.9c9.4-5.7 44-25.6 48.2-31.8a9.9 9.9 0 0 1-6-4c4.3-1 6.4-3.1 10-5a14.1 14.1 0 0 0-6-8c-4.6 1.2-6.4 4.8-11 6-.9-3.6-.6-3.2-3-5-4.9 1.1-19.9 11.4-25.2 14.8-7 4.4-67.1 40.9-76.9 43.1z"/>
</svg>
