<svg xmlns="http://www.w3.org/2000/svg" viewBox="0 0 224.1 224">
  <path fill="none" stroke="currentColor" stroke-width="7" stroke-miterlimit="10" d="M91.4 177.8h39.1c8.1 0 6.3-10.9 6.6-12.2a29.8 29.8 0 0 1 2.4-6.9l7.2-11.6c15.9-26.2 23.8-51.1-.8-75.9-5-5.1-12.8-9.5-19.6-11.7a51.8 51.8 0 0 0-22.8-1.7 24.3 24.3 0 0 0-5.2 1.1A53.6 53.6 0 0 0 87 63.2c-8.9 5-17.2 13-21.5 22.4-10.1 22.2-4.1 38.3 7.1 57.5 3.8 5.8 10.9 15.4 12.1 22.5.6 3.2-1.2 7.7 2.7 10.9a6.2 6.2 0 0 0 4 1.3zM84.6 191.2v15.3c0 1.6 1.8 4 3.7 4.9s5.4.7 8.1.7c.5 1.7 3.8 4.8 5.5 5.8l3.4 1.6a15.1 15.1 0 0 0 10.3.2l1.8-.7 2-1c1.7-1 5.2-4.2 5.6-5.9 5 0 7.7.6 10.3-2.4a6.8 6.8 0 0 0 1.4-3.1v-15.3c0-2.2-3.1-5.5-6-5.5h-40c-3-.2-6.1 3.2-6.1 5.4z"/>
  <path d="M0 112.3c0 .9.2 1.7 1.7 2.6s3.8 1.7 7.6 1.7 25.6.1 28-.2 6.1-2.3 6.1-3.6.2-1.4-.5-2.1l-.6-.7c-1.2-1.3-4.6-2.2-8.2-2.2s-25.8-.2-28.1.2-5.9 2.2-5.9 3.7v.6zM56.6 66.7c.6-.6 1.1-1.3.6-3s-1.5-3.9-4.1-6.6-18-18.2-19.9-19.7-6-2.7-6.9-1.8-1.1.8-1.2 1.9v.9c0 1.8 1.7 4.8 4.3 7.3s18.1 18.4 20 19.8 5.7 2.7 6.8 1.6zM111.1 43.4c.9 0 1.7-.2 2.6-1.7s1.7-3.8 1.7-7.6.1-25.6-.2-28-2.3-6.1-3.6-6.1-1.4-.2-2.1.5l-.7.6c-1.3 1.2-2.2 4.6-2.2 8.2s-.2 25.8.2 28.1 2.2 5.9 3.7 5.9h.6zM224 111.3c0-1.5-3-3.2-5.9-3.7s-24.1-.2-28.1-.2-6.9.9-8.2 2.2l-.6.7c-.7.8-.5 1-.5 2.1s3.1 3.2 6.1 3.6 24.1.2 28 .2 5.6-.6 7.6-1.7 1.7-1.7 1.7-2.6v-.6zM167 66.1c1.1 1.1 4.4.1 6.8-1.6s17.2-16.9 20-19.8 4.3-5.5 4.3-7.3v-.9c0-1.1-.4-1.1-1.2-1.9s-4.5-.1-6.9 1.8-17.1 16.9-19.9 19.7-3.6 4.4-4.1 6.6 0 2.4.6 3z"/>
</svg>
