<svg xmlns="http://www.w3.org/2000/svg" viewBox="0 0 24.2 21">
  <path d="M0 21V2.5h10V0h4.2v2.5h10V21H0zm20.5-3.3V5.9h-6.3v1.2H9.9V5.8H3.6v11.8zm1 1H2.6V4.9h7.3V3.6H1.2c-.2 0-.2.1-.2.3v16.2h22.2V3.9a.3.3 0 0 0-.3-.3h-8.6v1.3h7.3c-.1 4.6-.1 9.2-.1 13.8zM11 6.2h2.2V1.1H11z"/>
  <path d="M8.2 12.4a4 4 0 0 1 3.2 4.3H4a3.9 3.9 0 0 1 3.2-4.3C6 11.8 5.4 11 5.8 9.6a2.2 2.2 0 0 1 2-1.5 2 2 0 0 1 1.9 1.6 1.8 1.8 0 0 1-.2 1.6 2 2 0 0 1-1.3 1.1zm2.2 3.4a2.6 2.6 0 0 0-3-2.3c-1.3.1-2.5 1.3-2.4 2.3zm-3.8-5.5a1.1 1.1 0 0 0 1.1 1.2c.7 0 1.1-.4 1.1-1.2a1 1 0 0 0-1.1-1.1 1.1 1.1 0 0 0-1.1 1.1zm6.7-.2v-1h5.9v1zm0 2.9v-1h5.9v1zm0 3v-1h5.9v1z"/>
</svg>
