<svg xmlns="http://www.w3.org/2000/svg" viewBox="0 0 30 30">
  <path fill="#262324" d="M27.1 3.8H2.9C1.4 3.8.1 5.1.1 6.6v16.7c0 1.5 1.3 2.8 2.8 2.8H27c1.5 0 2.8-1.3 2.8-2.8V6.6c.1-1.5-1.2-2.8-2.7-2.8zm1.3 19.6c0 .7-.6 1.3-1.3 1.3H2.9c-.7 0-1.3-.6-1.3-1.3V6.6c0-.7.6-1.3 1.3-1.3H27c.7 0 1.3.6 1.3 1.3v16.8zm-4.9-14l-8.4 7.9-8.4-7.9c-.3-.3-.8-.3-1.1 0-.3.3-.3.8 0 1.1l5 4.7L6.8 19c-.3.3-.3.8 0 1.1.1.1.3.2.5.2s.4-.1.5-.2l3.9-3.9 2.9 2.7c.1.1.3.2.5.2s.4-.1.5-.2l2.9-2.8s0 .1.1.1l3.9 3.9c.1.1.3.2.5.2s.4-.1.5-.2c.3-.3.3-.8 0-1.1l-3.9-3.9h-.1l4.9-4.6c.3-.3.3-.8 0-1.1s-.6-.3-.9 0z"/>
</svg>
