<svg xmlns="http://www.w3.org/2000/svg" viewBox="0 0 20.9 21.6">
  <path d="M9.6 17.3H7.1v-1.4h10.2l.3-1.5H7.8a1.4 1.4 0 0 1-1.5-1.2c-.1-.3-.1-.6-.2-.9h1.4a.1.1 0 0 1 .1.1c.1.2.1.5.3.5h10c.4-2.2.9-4.3 1.3-6.5H6.3c0 .2.1.5.1.7H5L4.7 6l-.6-2.8a2.2 2.2 0 0 0-2.2-1.8H0V0a11.3 11.3 0 0 1 2.6.1 3.5 3.5 0 0 1 2.9 2.8 12.9 12.9 0 0 1 .4 1.9c0 .2.1.2.3.2h14.7c-.1.4-.1.7-.2 1.1-.6 2.9-1.2 5.8-1.7 8.7a18.5 18.5 0 0 0-.4 2.3c0 .2-.1.2-.3.2h-2.2c1.3.4 2 1.3 1.8 2.4a2.1 2.1 0 0 1-2.1 1.9 2.1 2.1 0 0 1-2.1-1.9 2.2 2.2 0 0 1 1.8-2.4h-5.2c1.3.4 2 1.3 1.8 2.4a2.2 2.2 0 0 1-2.2 1.9 2.2 2.2 0 0 1-2.1-2 2.2 2.2 0 0 1 1.8-2.3zm1 2.1a.7.7 0 1 0-.7.7.6.6 0 0 0 .7-.7zm5.1-.7a.7.7 0 1 0 .7.7.7.7 0 0 0-.7-.7z"/>
  <path d="M2.8 9.4V8h9.3v1.4zm1.4 2.1v-1.4h6.4v1.4z"/>
</svg>
