<?xml version="1.0" encoding="utf-8"?>
<!-- Generator: Adobe Illustrator 21.0.0, SVG Export Plug-In . SVG Version: 6.00 Build 0)  -->
<svg version="1.1" id="Слой_1" xmlns="http://www.w3.org/2000/svg" xmlns:xlink="http://www.w3.org/1999/xlink" x="0px" y="0px"
	 viewBox="0 0 595.3 841.9" style="enable-background:new 0 0 595.3 841.9;" xml:space="preserve">
<style type="text/css">
	.st0{fill:none;stroke:#F16829;stroke-width:2;}
	.st1{fill:#F16829;stroke:#F16800;stroke-width:2;}
</style>
<g id="Слой_x0020_1">
	<path class="st0" d="M266.4,139c-1.5-5.6-3.1-11.3-3.8-14.7c-0.7-3.4-0.6-4.4-0.3-5.4c0.5-1.1,1-2.4,2.2-3.3c1.1-1,2.7-1.6,4.1-1.9
		s2.4-0.2,3.6,0.1c1.2,0.4,2.5,1,3.5,2c1,1,1.7,2.4,2.1,3.7c0.4,1.3,0.4,2.5,0,4.7c-0.5,2.2-1.4,5.4-2.1,8c-0.8,2.6-1.4,4.7-2,6.8"
		/>
	<polygon class="st1" points="265.2,148 265.1,139 275.3,138.9 275.2,148 276.2,150.3 276.1,158 263.9,157.9 263.9,150.3 	"/>
	<ellipse class="st0" cx="270.1" cy="121.6" rx="4.2" ry="4.5"/>
</g>
</svg>
