<?xml version="1.0" encoding="utf-8"?>
<!-- Generator: Adobe Illustrator 21.0.0, SVG Export Plug-In . SVG Version: 6.00 Build 0)  -->
<svg version="1.1" id="Слой_1" xmlns="http://www.w3.org/2000/svg" xmlns:xlink="http://www.w3.org/1999/xlink" x="0px" y="0px"
	 viewBox="0 0 595.3 841.9" style="enable-background:new 0 0 595.3 841.9;" xml:space="preserve">
<g id="Слой_x0020_1">
	<path d="M195.2,522.1c0.3,0.7,0.5-0.5,0.8-1.1c4.1-9.2,8.7-18.4,12.7-27.6c4.3-9.9,9.3-19.8,13.6-29.6c2.1-4.8,4.5-9.9,6.7-14.6
		c2.2-4.8,4.4-9.9,6.8-14.8l13.6-29.4c-0.4-0.6,0.9-1-2.2-0.1c-0.8,0.2-1.6,0.4-2.3,0.6l-13.3,3.5c-3,0.7-6,1.6-9,2.4
		c-2.8,0.7-6.5,1.9-9.1,2.3c0.2-1.9,9-26.6,10.4-30.3c0.6-1.6,1.2-3.3,1.8-4.9c0.7-1.7,1.4-3.3,1.9-4.9h-32.1
		c-1,7.2-6.5,28.9-8.2,36.1c-0.7,2.6-8.5,33.9-8.6,35.7l36.1-9.7L195.2,522.1z"/>
</g>
</svg>
