<?xml version="1.0" encoding="utf-8"?>
<!-- Generator: Adobe Illustrator 21.0.0, SVG Export Plug-In . SVG Version: 6.00 Build 0)  -->
<svg version="1.1" id="Слой_1" xmlns="http://www.w3.org/2000/svg" xmlns:xlink="http://www.w3.org/1999/xlink" x="0px" y="0px"
	 viewBox="0 0 595.3 841.9" style="enable-background:new 0 0 595.3 841.9;" xml:space="preserve">
<style type="text/css">
	.st0{fill:#FFFFFF;}
</style>
<path d="M489.4,237.9c0.7,5.7,3.2,1.5,3.1,8.7c-0.1,12,2.3,14.7-8,14.7c-3.8,0-7.7,0.1-11.5-0.1c-1.1-2.8-1-5.5-5.2-4.6
	c-3.3,0.7-2.9,4.3-2.9,7.7c0,3.5-0.3,6.3,3.1,6.9c4.1,0.8,4.3-2.4,5-5l16.3-0.1c0,0,7.6,6.5,10.7-0.3c2-4.6-2.2-6.3-2.4-7.7v-15.5
	c1.8-1.3,1.6-0.9,2.7-3.2c3.9,0.3,10.2,1.9,13.7,1c3.6-0.9,6.9-4.5,7.1-8.8c0.2-10.3-12.1-9.8-20.7-10.9c-9.4-1.3-20.2-4.8-24.8,2.4
	c-2.7,4.2-1.3,8.6,1.5,11.2C479.9,237.1,484.6,237.4,489.4,237.9z"/>
<path class="st0" d="M509.6,224.3c-10.2,2.5-6.7,17.1,3.7,14.5C523.1,236.4,519,222,509.6,224.3z"/>
</svg>
