<?xml version="1.0" encoding="utf-8"?>
<!-- Generator: Adobe Illustrator 21.0.0, SVG Export Plug-In . SVG Version: 6.00 Build 0)  -->
<svg version="1.1" id="Слой_1" xmlns="http://www.w3.org/2000/svg" xmlns:xlink="http://www.w3.org/1999/xlink" x="0px" y="0px"
	 viewBox="0 0 595.3 841.9" style="enable-background:new 0 0 595.3 841.9;" xml:space="preserve">
<style type="text/css">
	.st0{fill:#383838;}
	.st1{fill:#848484;}
</style>
<g id="_1350833776">
	<path d="M94.3,205.3v2.7l4.5,5.5c1.6,1.4,3.5,3.1,5.1,4.5c1.8,1.6,3.3,2.9,5.1,4.5l4.7,4.9c12.9,16.8-6.3,23.5-11.6,37.3
		c-5.5,14.2,4.5,27.7,17.4,32.3c1,0.4,2.7,0.7,3.6,1.2c1.2,1.6,0.9,3.7,4.1,4.1l9,0.1c0.3,1,0.3,4.4,0.2,5.5
		c-0.2,4.7,3.3,9.7,5.4,11.7c2.7,2.5,6.9,4.6,12,4.8l33.3-0.1c0.4,2.5-0.2,3.8,0.8,6.4c3.3,8.9,18.3,8.2,18.8-3.7
		c0.2-4.5,0-9.4,0-13.9c0-6.5,0.6-53-0.6-55c-1.6-6.7-12.4-10-17.5-2c-2,3.1-0.9,4.4-1.5,7.8l-17.4-0.1c-10.8,0-22.4-2.1-29.3,6.3
		c-4.3,5.3-3.6,8.3-4.3,13.3c-5.8,0.5-11.2-1.7-12.8,4c-5-1.3-9-4.7-10.9-8.6c-2.7-5.8-0.8-10.6,2-14.9c5.3-8.1,13.4-12.2,14.1-24.5
		c0.7-12-7.7-20.2-13.4-25.2c-3.4-3.1-7-6-10-9.2c-1.8-2-4.9-6.2-8.9-2.5C94.9,203.6,95.1,204.2,94.3,205.3z"/>
	<path d="M244.5,277.1v-3c-0.8-1-0.5-1.8-1.9-3.2c-0.8-0.9-1.8-1.5-3.1-1.9c-1.7-0.5-16.9-0.3-19.9-0.3c-3,0-6.9-0.2-9.8,0.1
		l0.1,13.7c6.2,0.4,13.7,0.1,20,0.1c4.9,0,9.9,0.9,12.8-2.3C243.4,279.6,243.8,278.1,244.5,277.1z"/>
	<path d="M239.2,318.3c1.6-0.1,2.8-1.1,3.6-1.9c1.1-1.2,1-2.1,1.8-3.4v-2.8l-1-2c-1-1.7-3.2-3.5-5.4-3.2l-28.1,0.1v13.5
		c7.3-0.2,17.8,0,25.7,0C236.7,318.6,238.6,318.2,239.2,318.3z"/>
	<path class="st0" d="M239.2,318.3c-0.5-0.1-2.4,0.3-3.5,0.3c-7.9,0-18.4-0.2-25.7,0v-13.5l28.1-0.1c-0.3-0.2,0.3-0.1-0.8-0.3
		c-0.1,0-0.8,0-1,0h-12.5c-4.1,0-10.2-0.4-14.2,0.1l0,13.9c4.3,0.4,10.4,0.1,14.9,0.1c2.5,0,5,0,7.4,0
		C233.3,318.8,238.6,319.4,239.2,318.3z"/>
	<path class="st1" d="M136.4,307.8c0.1-1.1,0.1-4.5-0.2-5.5l-9-0.1c1,0.7,6.6,0.3,8.8,0.4C136.2,303.4,135.9,307.6,136.4,307.8z"/>
</g>
</svg>
