<?xml version="1.0" encoding="utf-8"?>
<!-- Generator: Adobe Illustrator 21.0.0, SVG Export Plug-In . SVG Version: 6.00 Build 0)  -->
<svg version="1.1" id="Слой_1" xmlns="http://www.w3.org/2000/svg" xmlns:xlink="http://www.w3.org/1999/xlink" x="0px" y="0px"
	 viewBox="0 0 595.3 841.9" style="enable-background:new 0 0 595.3 841.9;" xml:space="preserve">
<style type="text/css">
	.st0{fill:none;stroke:#000000;stroke-width:5;stroke-miterlimit:10;}
	.st1{stroke:#000000;stroke-width:5;stroke-miterlimit:10;}
</style>
<path class="st0" d="M298.5,428.6c-6.8,0-19.1-0.5-25,0c-6.4,0-6.8,0-9.1,1.8c-2.3,1.8-6.8,5-10,6.8c-3.6,1.8-5.9,2.3-10,2.7
	c-3.6,0.5-9.1,0.9-13.2,1.4c-4.1,0.9-7.3,1.4-9.5,2.3c-2.3,0.9-4.1,2.3-5.9,4.1c-1.8,1.4-2.7,3.6-3.6,7.3s-1.4,8.6-1.8,18.6
	c-0.5,10-0.9,25.5-0.9,33.2c-0.5,7.7-0.9,8.2-1.4,8.6c-0.9,0.9-1.8,1.8-2.3,3.2c-0.9,0.9-1.4,2.3-1.4,3.2c-0.5,0.9-0.9,2.3-0.9,3.6
	c0,1.8,0,4.1,0,6.4c0,2.3-0.5,4.1,0,5.9c0.5,1.8,1.4,3.6,1.8,5.5c-0.9,0.9-1.8,1.8-2.3,3.6c-0.5,1.4-0.5,3.2,0.5,4.5
	c6.4,11.8,67.7,12.7,80,12.7c12.3,0.5,80.5-3.6,81.4-13.2c0.5-1.4,0-3.6-0.5-5c-0.5-1.4-0.9-2.3-1.8-3.6c1.8-0.5,3.2-0.9,4.1-2.7
	c0.9-1.8,1.8-4.1,1.8-7.7c0-3.2-0.5-6.8-0.9-9.5c-0.9-2.3-1.4-3.2-2.3-4.5c-1.4-1.4-2.7-3.2-3.2-6.8c-0.5-3.2-0.5-8.6-0.9-17.3
	c0-9.1-0.5-21.4-0.9-29.1c-0.9-7.7-1.4-10.9-3.6-13.6c-1.8-2.7-5-5.9-9.1-7.7c-4.1-1.4-9.5-2.3-14.1-2.7c-5,0-9.1,0-12.3-0.5
	c-3.2-0.9-4.5-1.4-6.8-3.2c-2.3-1.4-4.5-3.6-6.4-5.5C306.3,430,304.9,429.1,298.5,428.6z"/>
<path class="st1" d="M275.4,401.7c-8.6-1.4-17.3-2.7-22.7-2.7c-5,0-6.4,0.9-7.3,2.7c-1.4,1.8-1.4,4.5-1.8,6.8c0,2.3,0,4.1,0,5.9
	c0.5,1.4,0.9,3.2,1.8,4.1c0.9,1.4,1.4,1.8,5,2.3c3.2,0,9.1,0,13.6-0.5c4.5-0.5,8.2-0.9,11.8-1.4L275.4,401.7z M298.4,401.3
	c10-0.9,19.5-2.3,25-2.3c5,0,6.4,0.9,6.8,2.3c0.5,0.9,0.5,2.3,0.5,5.5c0,2.7,0,7.7-0.5,10.5c-0.5,2.7-0.9,3.6-2.7,4.1
	c-2.3,0.5-5.5,0.9-10.5,0.5c-5-0.5-12.3-1.4-19.5-2.7L298.4,401.3z M293.1,426.7l-13.6,0.9l0,0c0-2.3,0-4.1,0-5.9
	c-1.8-1.4-3.2-2.7-4.1-5c-0.5-2.7-0.9-6.4-0.5-9.5c0.5-2.7,1.4-5.5,2.7-7.3c1.4-1.4,3.2-2.3,5-2.3c1.8-0.5,4.1-0.5,5.9,0
	c1.8,0.5,3.6,0.9,5,1.8c1.4,0.9,2.7,2.7,3.2,5.5c0.5,2.3,0.5,5.9,0,9.1c-0.9,3.2-2.3,5.5-3.6,8.2
	C293.1,423.5,293.1,424.9,293.1,426.7z"/>
<path class="st0" d="M209,511.4c27.7,8.2,53.6,10.9,78.6,10.9c25,0,49.1-5.5,74.6-11.4"/>
<path class="st0" d="M218.5,445.5c3.2,0.9,6.4,2.3,10.9,3.2c29.5,6.8,92.7,2.3,110.9-0.5c18.2-2.3,9.5-1.4,12.7-1.8"/>
</svg>
