<?xml version="1.0" encoding="utf-8"?>
<!-- Generator: Adobe Illustrator 21.0.0, SVG Export Plug-In . SVG Version: 6.00 Build 0)  -->
<svg version="1.1" id="Слой_1" xmlns="http://www.w3.org/2000/svg" xmlns:xlink="http://www.w3.org/1999/xlink" x="0px" y="0px"
	 viewBox="0 0 595.3 841.9" style="enable-background:new 0 0 595.3 841.9;" xml:space="preserve">
<style type="text/css">
	.st0{fill:#FFFFFF;}
</style>
<g>
	<path d="M27.6,323.4h84.4c-0.2-1.9-1.2-3.1-2.7-4c-1.5-1-2.6-1.6-4.5-2.4c-5.2-2.1-11-3.1-16.5-3.9c-4.5-0.7-1.8,0.2-5.2-1.7
		c-4.2-2.4-10.1-2.5-10.6-3c-0.6-0.5-15.2-33.1-15.9-34.6l-11.8-26.1c-1.4-3-1.8-3-1.1-4.3c3.5-6.9-3.3-2.4,7-10.3
		c11.5-8.8,24-19.8,35.8-29.1c1-0.8,2-1.5,2.9-2.4c0.9-0.8,2.2-1.9,3.1-2.5c0.9,0.3,2,1.6,2.6,2.3c1.5,1.6-1.8,4.3-0.1,13
		c1,5.1,3.9,10.5,6.8,12.9c1.4-0.7,8-8.3,9.6-9.2c2,1.1,3.9,3.5,8.9,3.4c3.9-0.1,6.9-1.9,8.8-3.7c3.4-3.1,4.8-9.2,2.7-13.8
		c-0.8-1.8-1.8-2.7-2.4-3.9c0.8-1.4,7.4-7.1,8-8.4c-2.6-3.1-7.4-5.3-11.3-6.4c-3.3-1-8.3-1-11.9-0.2c-5.5,1.2-1.6,2.6-11.8-7.3
		c-0.5-0.5-0.8-0.8-1.3-1.3c-0.5-0.6-0.9-1.1-1.6-1.4c-1.7,1.1-3.1,3.3-4.8,4.5l-6.6-6.6h-0.3c-0.8,1.4-4.6,4.6-6,6.2
		c0.8,1.1,2.4,2.4,3.2,3.2c0.7,0.7,2.7,2.6,3.3,3.5c-0.3,0.8-3.4,3.7-4,4.2c0.1,0.7,0.2,0.3,0.5,1.1c-2.3,2.2-4.6,3.6-7.3,6l-7.4,6
		c-9.8,7.6-19.6,16.1-29.6,24c-3.4,2.7-1.8,1.9-4.6,1.6c-5.4-0.5-10.4,3.2-10.9,9.3c-0.4,4.6,2.8,8.6,6.4,9.9
		c1.1,0.4,1.7,0.1,2.3,1.1l6.3,13.9c1.4,3,2.9,6.2,4.2,9.2c2,4.8,16.5,35.7,16.7,37c-0.9,0.5-3,1.2-4.1,1.7c-2,1-1.6,1.4-4.3,1.7
		c-3,0.3-7.1,1-10,1.7c-3.1,0.8-6.4,1.7-8.8,2.9C31,318.8,27.9,320.3,27.6,323.4z"/>
	<path class="st0" d="M114.6,217c2,1.1,3.4,2.6,7.1,2.5c10-0.3,12-12.9,6.7-16.7l-12.1,12C115.4,215.6,114.8,215.9,114.6,217z"/>
</g>
</svg>
