<?xml version="1.0" encoding="UTF-8"?>
<!DOCTYPE svg PUBLIC "-//W3C//DTD SVG 1.1//EN" "http://www.w3.org/Graphics/SVG/1.1/DTD/svg11.dtd">
<!-- Creator: CorelDRAW X8 -->
<?xml-stylesheet href="15 система автоматизации.css" type="text/css"?>
<svg xmlns="http://www.w3.org/2000/svg" xml:space="preserve" width="210mm" height="297mm" version="1.1" style="shape-rendering:geometricPrecision; text-rendering:geometricPrecision; image-rendering:optimizeQuality; fill-rule:evenodd; clip-rule:evenodd"
viewBox="0 0 21000 29700"
 xmlns:xlink="http://www.w3.org/1999/xlink">
 <g id="Слой_x0020_1">
  <metadata id="CorelCorpID_0Corel-Layer"/>
  <path class="fil0" d="M6031 5340l1676 1c24,-2 45,-11 59,-25 4,-6 9,-13 16,-22 7,-15 7,-32 -2,-47 -5,-7 -10,-12 -15,-17 -21,-17 -58,-29 -117,-29l-565 0 1 -172 25 -14c77,-38 74,-29 155,-90 273,-204 344,-640 45,-946 -40,-41 -85,-75 -133,-101 -92,-50 -174,-59 -218,-70 -69,-9 -140,-6 -208,8 -11,3 -22,5 -34,8 -107,28 -207,82 -287,163 -316,317 -201,818 145,999 28,14 66,24 89,43l1 169c-74,11 -443,4 -566,3 -60,0 -98,13 -119,30 -3,5 -8,10 -13,15 -9,16 -8,33 -2,48 7,9 12,16 16,22 13,13 31,22 51,24zm772 -1321c-208,38 -389,231 -343,486 36,204 235,386 487,340 204,-38 383,-234 340,-486 -35,-205 -235,-386 -484,-340z"/>
  <path class="fil1" d="M5963 5250c44,-49 26,-49 135,-49 123,1 492,8 566,-3l-1 -169c-23,-19 -61,-29 -89,-43 -346,-181 -461,-682 -145,-999 170,-171 307,-155 367,-186l-833 0 0 1449z"/>
  <path class="fil1" d="M7783 5250l0 -1449 -845 0c51,23 215,18 371,178 299,306 228,742 -45,946 -81,61 -78,52 -155,90l-25 14 -1 172 565 0c95,0 88,-5 135,49z"/>
  <path class="fil1" d="M5963 5530c56,-64 56,-48 186,-48l1440 0c145,0 133,-16 194,47l0 -237c-24,31 -23,46 -76,49l-1676 -1c-50,-6 -44,-19 -68,-48l0 238z"/>
  <path class="fil0" d="M5963 5621l1820 0c0,-165 -43,-139 -194,-139l-1440 0c-149,0 -186,-23 -186,139z"/>
  <path class="fil0" d="M7115 4138c-62,31 -160,126 -189,144 -38,23 -49,4 -94,16 -120,32 -133,206 -17,260 63,30 124,4 159,-33 63,-66 13,-98 61,-159 25,-32 139,-159 140,-193 2,-39 -29,-51 -60,-35z"/>
 </g>
</svg>
