<?xml version="1.0" encoding="UTF-8"?>
<!DOCTYPE svg PUBLIC "-//W3C//DTD SVG 1.1//EN" "http://www.w3.org/Graphics/SVG/1.1/DTD/svg11.dtd">
<!-- Creator: CorelDRAW X8 -->
<?xml-stylesheet href="15 систама автоматизации.css" type="text/css"?>
<svg xmlns="http://www.w3.org/2000/svg" xml:space="preserve" width="210mm" height="297mm" version="1.1" style="shape-rendering:geometricPrecision; text-rendering:geometricPrecision; image-rendering:optimizeQuality; fill-rule:evenodd; clip-rule:evenodd"
viewBox="0 0 21000 29700"
 xmlns:xlink="http://www.w3.org/1999/xlink">
 <g id="Слой_x0020_1">
  <metadata id="CorelCorpID_0Corel-Layer"/>
  <path class="fil0" d="M3330 6611l1676 1c24,-2 45,-12 59,-25 5,-6 9,-14 16,-22 7,-15 7,-32 -1,-47 -6,-7 -11,-13 -15,-17 -21,-17 -59,-29 -118,-29l-565 0 1 -172 25 -14c77,-38 74,-29 156,-91 272,-203 343,-639 44,-945 -40,-41 -84,-75 -132,-101 -92,-50 -175,-59 -219,-71 -69,-8 -139,-5 -208,9 -10,2 -22,5 -34,8 -106,27 -206,82 -287,163 -315,317 -201,817 145,998 28,15 66,25 90,44l0 169c-73,11 -443,4 -565,3 -61,0 -99,12 -119,30 -4,4 -8,9 -13,15 -9,15 -9,33 -2,48 7,9 11,16 15,22 13,12 31,21 51,24zm772 -1321c-208,38 -389,231 -343,486 37,203 235,386 487,339 204,-37 383,-233 340,-486 -35,-204 -235,-385 -484,-339z"/>
  <path class="fil0" d="M3262 6892l1821 0c0,-166 -43,-140 -195,-140l-1439 0c-150,0 -187,-22 -187,140z"/>
  <path class="fil0" d="M4414 5409c-61,31 -160,126 -189,143 -37,23 -49,4 -94,16 -120,32 -132,207 -17,261 63,30 124,4 160,-34 63,-66 12,-97 61,-159 25,-31 139,-158 140,-193 1,-38 -30,-50 -61,-34z"/>
 </g>
</svg>
