<?xml version="1.0" encoding="utf-8"?>
<!-- Generator: Adobe Illustrator 21.0.0, SVG Export Plug-In . SVG Version: 6.00 Build 0)  -->
<svg version="1.1" id="Слой_1" xmlns="http://www.w3.org/2000/svg" xmlns:xlink="http://www.w3.org/1999/xlink" x="0px" y="0px"
	 viewBox="0 0 595.3 841.9" style="enable-background:new 0 0 595.3 841.9;" xml:space="preserve">
<style type="text/css">
	.st0{fill:none;stroke:#000000;stroke-width:0.5;stroke-miterlimit:10;}
	.st1{stroke:#000000;stroke-width:0.5;stroke-miterlimit:10;}
</style>
<g id="_1034218208">
	<path class="st0" d="M25.9,131.7c-0.3,1.8-1.9,3.3-4,3c-1.7-0.3-3.3-2-2.9-4c0.3-1.7,1.9-3.3,4-3C24.6,128,26.3,129.7,25.9,131.7z
		 M5.9,120.1v1.4c0.1,0.1,0.2,0.9,0.2,1.1c0.1,0.3,0.2,0.8,0.3,1c0.9,2,2.1,3,4.1,4.3c2.3,1.5,4.7,2.6,7.9,3.3l0.2,1.1
		c-1.6,1.6-1.4,1.1-2.9,3.1c-0.1,0.2-0.7,1.1-0.9,1.2l-1.4,2.6c-0.2,0.5-0.4,0.9-0.7,1.4c-0.2,0.4-0.3,1.2-0.5,1.5
		c-0.2,0.8-0.3,1.6-0.2,2.4c0.3,6,8,8.9,12.3,4.7c2.8-2.8,2.5-6.5,2-10.3c-0.1-1.2-0.5-2.9-0.9-4c-0.1-0.3-0.4-0.9-0.5-1.2
		c0.1-0.2,0.3-0.3,0.4-0.5c0.1,0,1.8,0.6,2.4,0.8c2.6,0.6,6.1,0.9,8.6,0.5c3.6-0.6,7.5-4.5,6.3-8.1c-0.2-1-0.1-0.9-0.6-2.2
		c-0.3-0.6-0.9-1.4-1.2-1.8c-2.5-2.6-5.7-2.9-9-1.4c-2,0.9-2.2,1.2-3.9,2.2c-1,0.7-1.8,1.3-2.6,2.1c-0.5,0.5-1.2,1.2-1.6,1.8
		c-0.1,0.3-0.2,0.5-0.6,0.5c-0.1-0.3-0.1-0.9-0.1-1.3c-0.3-2.4-1.6-5.4-2.7-7.4c-1.1-1.9-2.2-3.5-4.2-4.5c-1.6-0.8-3.5-0.9-5.1-0.4
		c-1.9,0.6-3.6,2-4.5,3.7c-0.2,0.4-0.3,0.8-0.5,1.2L5.9,120.1z"/>
	<path class="st1" d="M22.1,129.9c-1.9,0.5-1.2,3.3,0.7,2.7c0.7-0.2,1.2-0.9,1-1.7C23.6,130.3,22.9,129.7,22.1,129.9z"/>
</g>
</svg>
