<?xml version="1.0" encoding="utf-8"?>
<!-- Generator: Adobe Illustrator 21.0.0, SVG Export Plug-In . SVG Version: 6.00 Build 0)  -->
<svg version="1.1" id="Слой_1" xmlns="http://www.w3.org/2000/svg" xmlns:xlink="http://www.w3.org/1999/xlink" x="0px" y="0px"
	 viewBox="0 0 595.3 841.9" style="enable-background:new 0 0 595.3 841.9;" xml:space="preserve">
<style type="text/css">
	.st0{fill:none;stroke:#000000;stroke-width:2;stroke-miterlimit:10;}
</style>
<g id="Слой_x0020_1">
	<g id="_1034219200">
		<path class="st0" d="M114.1,319.2v34h-1.6v-26.7c0-3.6-3.3-6.1-6.9-4.7c-3.8,1.5-3.1,6.3-3.1,9.6c0,8.4,0,16.9,0,25.3
			c-0.8-0.5-5-5.9-6.4-7.1c-4-3.4-8.2,0.8-8.2,4.1c0,3.1,3.7,9,5.1,11.9c0.2,0.5,0.4,0.8,0.7,1.3l7.5,14.1c1.2,2.3,1.6,2.6,1.2,4.8
			c-0.2,1.6-1.7,18.8-1.4,19.7h43.7h3.2c0.4-0.1,0.6-0.2,0.7-0.4c0.2-0.5-1.7-19-1.8-20.4c-0.3-5.5,0-12,0-17.6c0-5.9,0-11.7,0-17.6
			c0-3.8,0.5-14.6-0.5-17.1c-1.8-4.6-9.4-3.7-9.4,2.1v18.6h-1.6v-26.3c0-7.5-9.9-6.9-9.9-0.4v26.7H124v-34.4c0-4.3-4.8-6.7-8.1-3.9
			C114.8,315.9,114.1,317.2,114.1,319.2z"/>
		<path class="st0" d="M150,341v39.6c0,0.7,1.2,17,1.6,18.8c0.2,0.9-0.1,0.3,0.4,1c0.9-0.3,0.9-0.7,1.1-1.6l2-6.8
			c0.9-3.1,1.7-5.9,2.6-8.9c2.8-9.8,8.6-23.5,12-33.9c0.9-2.6,5.9-15.6,5.9-17c0-5.5-7.7-7-9.7-1.6l-3.1,8.6c-0.5,1.5-3,7.8-3.1,8.8
			c-1-0.1-0.6-0.3-1.6-0.4c0.1-0.8,6.7-19,7.1-20c0.8-2,2.2-5.3,2.2-7.5c0-1.2-0.7-2.5-1.4-3.1c-2-1.8-4.7-1.9-6.7-0.1
			c-0.9,0.8-1.3,1.9-1.7,3C156.9,321.6,150,340.3,150,341z"/>
		<path class="st0" d="M142.1,325.9c1.6,1,2,0.1,4.6,2.2c1.2,1,2,3.3,2.9,4c1.1-0.3,1.8-3.4,2.5-5.2l2-5.7c0.3-1,0.7-1.8,1-2.8
			c0.3-1,0.7-1.9,1.1-2.9c0.4-1,0.6-1.9,1-2.9c0.6-1.5,0.9-2.2,0.9-3.7c0-2.5-2.2-4.3-4.6-4.5h-0.9c-1.7,0.1-3.4,1.2-4.3,3.6
			l-4.3,11.9C143.7,321.1,142.1,325,142.1,325.9z"/>
		<path class="st0" d="M132.8,317.8c0,0.9,0.3,0.9,1,1.2c3.7,1.9,3.5,5.5,4.6,9.9c0.8,0,0.7,0.4,1.4-1.4c0.3-0.7,0.4-1.3,0.7-2.1
			l2.9-8.1c1-2.9,2.5-5.6-0.2-8.2c-1.8-1.7-4.7-1.8-6.5-0.1c-0.9,0.9-1.2,1.3-1.6,2.6C134.6,312.4,132.8,317.2,132.8,317.8z"/>
	</g>
</g>
</svg>
