<?xml version="1.0" encoding="UTF-8"?>
<!DOCTYPE svg PUBLIC "-//W3C//DTD SVG 1.1//EN" "http://www.w3.org/Graphics/SVG/1.1/DTD/svg11.dtd">
<!-- Creator: CorelDRAW X8 -->
<?xml-stylesheet href="18 счетчики.css" type="text/css"?>
<svg xmlns="http://www.w3.org/2000/svg" xml:space="preserve" width="210mm" height="297mm" version="1.1" style="shape-rendering:geometricPrecision; text-rendering:geometricPrecision; image-rendering:optimizeQuality; fill-rule:evenodd; clip-rule:evenodd"
viewBox="0 0 21000 29700"
 xmlns:xlink="http://www.w3.org/1999/xlink">
 <g id="Слой_x0020_1">
  <metadata id="CorelCorpID_0Corel-Layer"/>
  <g id="_1136609616">
   <path class="fil0" d="M6234 4747l9169 0 0 9922 -9169 0 0 -9922zm919 5682l0 1 7349 -1 0 -4184 -7369 0 0 4184 20 0z"/>
   <polygon class="fil0" points="8428,9862 13229,9864 13219,9349 8457,9346 "/>
   <rect class="fil0" x="8090" y="15255" width="1414" height="1377"/>
   <rect class="fil0" x="11854" y="15267" width="1400" height="1343"/>
   <rect class="fil0" x="8457" y="9346" width="4773" height="518"/>
   <rect class="fil0" x="8176" y="7133" width="804" height="1034"/>
   <rect class="fil0" x="9671" y="7103" width="800" height="1055"/>
   <rect class="fil0" x="12718" y="7118" width="804" height="1034"/>
   <polygon class="fil0" points="11165,8134 11988,8145 11983,7110 11185,7111 "/>
  </g>
 </g>
</svg>
