<?xml version="1.0" encoding="UTF-8"?>
<!DOCTYPE svg PUBLIC "-//W3C//DTD SVG 1.1//EN" "http://www.w3.org/Graphics/SVG/1.1/DTD/svg11.dtd">
<!-- Creator: CorelDRAW X8 -->
<?xml-stylesheet href="19 телекоммуникационные системы.css" type="text/css"?>
<svg xmlns="http://www.w3.org/2000/svg" xml:space="preserve" width="210mm" height="297mm" version="1.1" style="shape-rendering:geometricPrecision; text-rendering:geometricPrecision; image-rendering:optimizeQuality; fill-rule:evenodd; clip-rule:evenodd"
viewBox="0 0 21000 29700"
 xmlns:xlink="http://www.w3.org/1999/xlink">
 <g id="Слой_x0020_1">
  <metadata id="CorelCorpID_0Corel-Layer"/>
  <g id="_787899264">
   <path class="fil0" d="M8212 9861l0 0zm0 0c-89,-59 -332,-365 -414,-466 -151,-188 -229,-336 -339,-540 -222,-411 -348,-942 -348,-1412 35,9 421,231 479,265 20,11 50,31 72,36 0,620 125,1089 349,1646 32,80 69,159 100,236l101 235zm-1473 -2568c0,466 68,852 204,1262 41,121 86,226 134,339 48,111 101,210 158,314 55,102 119,196 182,290 51,78 230,310 311,398l361 347c12,10 17,17 29,27l235 180c47,35 92,63 141,95 157,105 437,253 619,326l347 125c256,86 520,126 790,154 355,38 693,8 1040,-50 165,-27 358,-81 516,-134l236 -87c229,-91 443,-212 643,-336 46,-29 84,-59 127,-88 48,-31 344,-249 358,-300 -36,-9 -62,-31 -95,-48l-189 -98c-35,-19 -60,-33 -97,-52 -36,-18 -57,-32 -93,-50 -36,-18 -61,-30 -94,-50 -33,-19 -61,-30 -95,-48l-1142 -603c-259,-145 -589,-314 -856,-453l-191 -103c-34,-18 -62,-30 -94,-49 -24,-14 -74,-42 -102,-49 3,-28 85,-177 99,-201 62,-102 25,-103 102,-121 97,-22 171,-69 229,-150 260,-365 -174,-768 -489,-453 -92,93 -141,267 -98,389 31,86 55,41 -48,224 -30,53 -53,102 -81,155l-474 -248c-35,-20 -63,-35 -98,-53 -33,-16 -60,-33 -93,-50l-1049 -553c-175,-87 -402,-219 -575,-305l-286 -150c-70,-35 -449,-248 -487,-251l-25 246c-7,43 -1,86 -7,129 -7,42 -3,89 -3,133z"/>
   <path class="fil0" d="M7569 12888l0 0zm0 0l80 -206c29,-72 59,-137 85,-208 119,-330 245,-614 344,-973 10,-36 23,-75 35,-115 13,-44 61,-195 64,-230 61,42 179,128 236,158l-73 228c-25,74 -50,147 -80,220 -29,73 -55,143 -88,212 -18,37 -30,66 -48,103 -99,199 -205,396 -337,572 -12,16 -19,23 -31,39 -41,55 -137,166 -187,200zm-380 193c1091,0 2162,-7 3255,-7 -1,-22 -149,-322 -178,-380 -90,-176 -265,-603 -330,-786 -24,-66 -47,-135 -74,-205 -16,-41 -65,-171 -69,-210 -124,-3 -608,-146 -733,-197l-323 -142c-117,-58 -285,-161 -392,-238l-269 -203 -95 305c-65,199 -181,591 -250,766 -21,52 -32,102 -53,154 -51,130 -170,466 -229,587 -11,24 -21,47 -31,70 -10,24 -20,44 -30,69l-199 417z"/>
   <path class="fil0" d="M9157 5040l100 300c27,-2 84,-32 108,-42 260,-107 589,-187 879,-187 281,0 388,7 661,69 356,80 721,264 1008,480l426 390c213,231 431,593 546,877 14,34 28,73 42,109 14,35 71,193 71,229l280 -92c-40,-171 -116,-328 -180,-487 -28,-67 -78,-161 -114,-223 -43,-76 -72,-134 -124,-212 -163,-243 -249,-351 -450,-551l-127 -124c-19,-15 -26,-25 -45,-41 -114,-96 -257,-206 -383,-282 -294,-177 -604,-326 -951,-394 -436,-86 -776,-101 -1224,3 -144,34 -261,71 -397,125 -23,10 -38,16 -60,26 -22,9 -46,22 -66,27z"/>
   <path class="fil0" d="M9400 5798c3,35 77,246 93,279 191,-101 527,-179 737,-179 335,0 561,37 842,167 45,21 100,47 142,72 106,63 164,97 262,175l226 210c93,93 219,261 285,373 81,137 156,288 211,440 17,48 35,122 56,166 45,-4 205,-71 272,-86 -64,-275 -294,-687 -461,-899l-309 -327c-66,-63 -252,-197 -325,-241 -134,-80 -269,-151 -428,-208 -359,-130 -735,-166 -1116,-99 -139,25 -371,95 -487,157z"/>
   <path class="fil0" d="M9622 6485c0,32 71,242 86,272 31,-17 70,-31 106,-44 44,-17 66,-25 122,-36 277,-55 604,-57 860,78 139,74 222,128 333,239 79,79 130,147 191,239l195 378c14,38 29,74 38,111 43,-1 225,-71 286,-85 -21,-46 -48,-155 -95,-256 -57,-124 -113,-222 -193,-329 -105,-140 -207,-253 -349,-359 -83,-62 -173,-124 -266,-170 -24,-12 -41,-17 -65,-29 -267,-135 -695,-182 -1000,-96l-249 87z"/>
  </g>
 </g>
</svg>
