<?xml version="1.0" encoding="UTF-8"?>
<!DOCTYPE svg PUBLIC "-//W3C//DTD SVG 1.1//EN" "http://www.w3.org/Graphics/SVG/1.1/DTD/svg11.dtd">
<!-- Creator: CorelDRAW X8 -->
<?xml-stylesheet href="2 высоковольтка.css" type="text/css"?>
<svg xmlns="http://www.w3.org/2000/svg" xml:space="preserve" width="210mm" height="297mm" version="1.1" style="shape-rendering:geometricPrecision; text-rendering:geometricPrecision; image-rendering:optimizeQuality; fill-rule:evenodd; clip-rule:evenodd"
viewBox="0 0 21000 29700"
 xmlns:xlink="http://www.w3.org/1999/xlink">
 <g id="Слой_x0020_1">
  <metadata id="CorelCorpID_0Corel-Layer"/>
  <path class="fil0" d="M2136 18127l219 0c23,-48 85,-132 120,-182l369 -546c82,-121 163,-239 247,-363l242 -356c34,27 687,999 745,1084l242 363 214 0 -516 -2286c30,-15 82,-52 109,-71l322 -220c38,-26 67,-45 107,-71 56,-38 53,-53 133,-53 106,1 261,10 362,-2l1 -199 -1037 -2c-17,-116 -1,-479 -1,-643 0,-116 -7,-85 155,-241 203,-194 91,-160 360,-160 167,0 355,8 520,-1l3 -204 -1041 -2c-46,-92 -107,-192 -155,-286 -79,-159 -445,-797 -465,-859l-110 0c-23,62 -92,170 -123,230l-496 910c-39,21 -911,-9 -1043,8l0 205c110,19 529,-5 692,3 42,2 39,8 61,30 338,335 293,205 292,494 0,132 -1,265 -1,398 0,108 28,118 -73,116 -145,-2 -906,-3 -971,5l3 203c108,9 247,2 358,1 80,0 87,20 138,53 124,81 460,313 544,357l-526 2287zm1877 -2498c37,-3 285,-178 302,-199l-301 -4 -1 203zm-1352 6l4 -205 -311 -3c14,14 274,210 307,208zm433 -419l491 1c-15,-29 -33,-38 -58,-59l-184 -145c-19,8 -230,166 -249,203zm-223 -103c26,-9 185,-147 229,-184l76 -70c-14,-25 -280,-244 -304,-258l-1 512zm627 -254c15,21 267,234 307,252l0 -510c-26,13 -293,236 -307,258zm-162 -154l471 -523 -937 -3 466 526zm-474 1068l471 592 462 -531 10 -404 -935 -3 -8 346zm-402 1815c34,-21 191,-254 229,-310l313 -449c31,-46 59,-85 90,-129 28,-41 69,-91 89,-131 -2,-6 -263,-366 -314,-408l-407 1427zm1026 -1010l735 1016c-6,-64 -408,-1412 -420,-1430 -51,63 -107,136 -159,205l-156 209zm-608 -2607l916 1c-10,-50 -391,-714 -448,-824 -36,28 -218,371 -239,408 -35,61 -223,374 -229,415z"/>
 </g>
</svg>
