<?xml version="1.0" encoding="utf-8"?>
<!-- Generator: Adobe Illustrator 21.0.0, SVG Export Plug-In . SVG Version: 6.00 Build 0)  -->
<svg version="1.1" id="Слой_1" xmlns="http://www.w3.org/2000/svg" xmlns:xlink="http://www.w3.org/1999/xlink" x="0px" y="0px"
	 viewBox="0 0 595.3 841.9" style="enable-background:new 0 0 595.3 841.9;" xml:space="preserve">
<style type="text/css">
	.st0{fill:#FFFFFF;stroke:#000000;stroke-width:14;stroke-miterlimit:10;}
	.st1{fill:none;stroke:#000000;stroke-width:14;stroke-miterlimit:10;}
	.st2{stroke:#000000;stroke-width:14;stroke-miterlimit:10;}
	.st3{fill:#020202;stroke:#000000;stroke-width:14;stroke-miterlimit:10;}
</style>
<g>
	<path class="st0" d="M176.4,368.9c14,23.6,28.3,7.5,28.7-0.1c0.5-7.7-6.6-12.4-12.5-16C182.2,355.3,178.9,358.4,176.4,368.9z"/>
	<path class="st1" d="M78.6,125.6h368.1c31.3,0,56.8,25,56.8,55.9V554c0,30.9-25.4,55.9-56.8,55.9H78.6c-31.3,0-56.8-25-56.8-55.9
		V181.5C21.8,150.6,47.2,125.6,78.6,125.6z"/>
	<ellipse class="st1" cx="262.2" cy="361.4" rx="162.8" ry="160.4"/>
	<circle class="st2" cx="195.6" cy="362.9" r="20"/>
	<circle class="st3" cx="329.3" cy="362.8" r="20"/>
</g>
</svg>
