<?xml version="1.0" encoding="UTF-8"?>
<!DOCTYPE svg PUBLIC "-//W3C//DTD SVG 1.1//EN" "http://www.w3.org/Graphics/SVG/1.1/DTD/svg11.dtd">
<!-- Creator: CorelDRAW X8 -->
<svg xmlns="http://www.w3.org/2000/svg" xml:space="preserve" width="210mm" height="297mm" version="1.1" style="shape-rendering:geometricPrecision; text-rendering:geometricPrecision; image-rendering:optimizeQuality; fill-rule:evenodd; clip-rule:evenodd"
viewBox="0 0 21000 29700"
 xmlns:xlink="http://www.w3.org/1999/xlink">
 <defs>
  <style type="text/css">
   <![CDATA[
    .fil0 {fill:black}
   ]]>
  </style>
 </defs>
 <g id="Слой_x0020_1">
  <metadata id="CorelCorpID_0Corel-Layer"/>
  <g id="_1014429824">
   <path class="fil0" d="M12588 6554c64,-11 1529,-2 1636,-2 127,0 295,-23 367,46 67,65 45,247 45,358l0 3700c0,137 4,251 -127,276 -67,13 -1530,4 -1640,4 -425,0 -411,20 -411,-407l0 -3700c0,-93 -20,-249 130,-275zm-401 -2l-20 45c-30,134 -14,454 -14,613l0 3175c0,189 -24,435 44,588 106,236 311,240 367,268l1951 0c53,-24 140,-12 251,-102 65,-53 115,-113 148,-216 46,-140 26,-514 26,-690l0 -2879c0,-210 17,-514 -7,-711 -12,-107 -59,-181 -117,-245 -87,-98 -123,-92 -220,-137 -176,-27 -350,0 -526,-16l0 -305 -1068 0 -2 301c-90,28 -375,-21 -536,31 -105,35 -264,165 -277,280z"/>
   <polygon class="fil0" points="12635,10751 14458,10751 14457,10089 12634,10091 "/>
   <polygon class="fil0" points="12632,9911 14461,9911 14461,9254 12635,9254 "/>
   <polygon class="fil0" points="12631,9076 14462,9075 14458,8419 12631,8420 "/>
   <path class="fil0" d="M12167 6597l20 -45c-20,19 -15,14 -20,45z"/>
  </g>
 </g>
</svg>
