<?xml version="1.0" encoding="utf-8"?>
<!-- Generator: Adobe Illustrator 21.0.0, SVG Export Plug-In . SVG Version: 6.00 Build 0)  -->
<svg version="1.1" id="Слой_1" xmlns="http://www.w3.org/2000/svg" xmlns:xlink="http://www.w3.org/1999/xlink" x="0px" y="0px"
	 viewBox="0 0 595.3 841.9" style="enable-background:new 0 0 595.3 841.9;" xml:space="preserve">
<style type="text/css">
	.st0{fill:none;stroke:#000000;stroke-width:17;stroke-miterlimit:10;}
</style>
<g id="Слой_x0020_1">
	<path class="st0" d="M127.6,368.6c4.6-5.6,14.2-11.6,19.8-20.5c5.7-8.9,7.5-20.9,8.8-41c1.2-20.2,1.8-48.8,4.8-68.8
		s8-31.7,18.4-43.6c10.3-11.9,25.8-23.9,46.6-29c20.7-4.9,46.7-2.7,64.4,3.7c17.8,6.4,27.5,17.2,35.7,27.5
		c8.2,10.4,15,20.2,18.3,37.4s3.2,41.6,3.5,61.4c0.4,19.9,1.1,35.2,7,46.7c5.8,11.6,16.7,19.5,22.2,25.6c5.4,6.1,5.4,10.2,4.1,13.2
		c-1.3,2.9-3.9,4.5-43.7,5c-39.7,0.6-116.7,0-158.5-0.4c-41.9-0.4-48.7-0.5-52.2-3.3S123,374.4,127.6,368.6z"/>
	<path class="st0" d="M226,162.7c0-9.9-0.1-17,3.3-23.3c3.4-6.4,10.2-9.2,17.4-9.9c7.1-0.7,14.5,0.7,19.6,4c5.2,3.4,8.1,9,9.3,14.6
		c1.3,5.7,1.1,8.5,0.8,14.4L226,162.7z"/>
	<path class="st0" d="M209.9,388c0.6,6.4,1.2,10.2,3,16.3c1.7,6.2,4.6,12.1,9.9,17.3c5.3,5.3,13.1,9.9,21.5,11.8
		c8.4,1.8,17.4,0.7,24.6-2c7.2-2.6,12.6-7,16.5-12.1c4-5,6.4-10.8,7.8-16.5c1.4-5.5,4.3-13.7,4.5-16.4c6-0.8-2.7,2.7-2.7,2.7
		L209.9,388z"/>
</g>
</svg>
