<?xml version="1.0" encoding="utf-8"?>
<!-- Generator: Adobe Illustrator 21.0.0, SVG Export Plug-In . SVG Version: 6.00 Build 0)  -->
<svg version="1.1" id="Слой_1" xmlns="http://www.w3.org/2000/svg" xmlns:xlink="http://www.w3.org/1999/xlink" x="0px" y="0px"
	 viewBox="0 0 595.3 841.9" style="enable-background:new 0 0 595.3 841.9;" xml:space="preserve">
<style type="text/css">
	.st0{fill:none;stroke:#F16821;stroke-width:10;stroke-linejoin:round;}
</style>
<g id="Слой_x0020_1">
	<path class="st0" d="M182.8,265c16.2,0,25,12.3,21.2,25.2c-1,3.3-3.9,8.8-6.2,9.8c0.7,3.1,9.4,20.8,11.5,25.5
		c1.9,4.4,33.8,74.4,35,76.2c8.1-1.2,14.1,1.6,16.8,7.2c3.2,5.5,1,16-3.2,19.7l-8.3-12.9c-1.9,0.5-12.9,5.2-13.6,6l4.3,16
		c-14.9-0.3-25.1-11.5-20-22.6c3.1-6.6,7.1-1.4-2-22.2l-15.5-33.8c-2.9-6.1-22.3-49.5-23.6-51c-10.4-0.5-17.1-4.6-20.3-11.9
		c-3.7-8.6,0.3-20,5.8-23.4l8.5,18.8l18.1-8.1L182.8,265z"/>
</g>
</svg>
