<?xml version="1.0" encoding="UTF-8"?>
<!DOCTYPE svg PUBLIC "-//W3C//DTD SVG 1.1//EN" "http://www.w3.org/Graphics/SVG/1.1/DTD/svg11.dtd">
<!-- Creator: CorelDRAW X8 -->
<?xml-stylesheet href="5 кабеленесущие системы.css" type="text/css"?>
<svg xmlns="http://www.w3.org/2000/svg" xml:space="preserve" width="210mm" height="297mm" version="1.1" style="shape-rendering:geometricPrecision; text-rendering:geometricPrecision; image-rendering:optimizeQuality; fill-rule:evenodd; clip-rule:evenodd"
viewBox="0 0 21000 29700"
 xmlns:xlink="http://www.w3.org/1999/xlink">
 <g id="Слой_x0020_1">
  <metadata id="CorelCorpID_0Corel-Layer"/>
  <path class="fil0" d="M7638 8418l-154 82c-4,252 -16,1332 13,1415 24,68 86,84 146,117 121,69 223,133 339,199l2350 1370c276,155 124,154 706,-172l6912 -4001c85,-59 56,-221 56,-385l0 -781c0,-322 8,-215 -118,-428 37,-73 148,-178 100,-236 -65,-76 -357,140 -484,210l-942 545c-105,59 -135,123 -240,56l-1290 -756c-118,-67 -71,-190 -71,-470 0,-247 -18,-519 -2,-762 146,-110 210,-31 135,-465 -29,-171 -160,-58 -250,-8l-1729 1003c-83,49 -160,95 -248,143 -635,345 -1338,784 -1979,1145l-1978 1146c-167,95 -327,193 -493,287l-745 427c-125,74 -17,100 -34,319zm2901 1692c18,35 26,52 55,85l1367 -782c159,-89 313,-177 463,-263l905 -526c868,-526 1881,-1061 2746,-1586 232,-141 1735,-984 1830,-1069l-69 -85 -1825 1055c-315,174 -598,353 -905,526l-1367 790c-149,92 -306,177 -459,267 -308,179 -618,353 -919,531l-1590 920c-68,39 -160,89 -232,137zm-2805 -1922l29 316 1814 -1047c1217,-689 2446,-1427 3663,-2120l1820 -1065c0,-71 -6,-240 -37,-302l-85 54c-32,18 -80,47 -118,69 -72,42 -150,88 -224,129l-2284 1323c-896,497 -1854,1100 -2745,1588 -75,42 -149,85 -223,130l-1610 925zm-131 416c-23,148 1,947 2,1173l7293 -4222 0 -1106c-57,22 -153,87 -215,121l-682 396c-301,169 -600,357 -908,525 -77,42 -149,85 -223,129l-682 396c-582,332 -1242,735 -1814,1050 -722,397 -1541,908 -2270,1317 -85,48 -142,82 -225,129 -152,87 -106,49 -276,92zm3054 1729l-3 1160 5232 -3045c85,-53 153,-86 235,-137 297,-187 610,-361 915,-535l682 -397c71,-40 169,-94 230,-135l0 -1137 -7291 4226zm-2982 -424l709 420c59,38 124,71 177,103 269,157 1929,1135 1959,1129l8 -1155c-1,-192 -116,-199 -133,-277 10,-91 61,-143 100,-210 55,-95 55,-86 156,-143 1361,-753 2801,-1644 4169,-2413l1505 -878 -1338 -788c-72,-24 -137,42 -277,126 -177,107 -359,208 -543,314l-1892 1101c-98,58 -171,98 -269,158 -178,108 -362,204 -542,314l-1622 943c-173,99 -360,213 -539,316 -242,138 -1509,892 -1628,940z"/>
 </g>
</svg>
