<?xml version="1.0" encoding="utf-8"?>
<!-- Generator: Adobe Illustrator 21.0.0, SVG Export Plug-In . SVG Version: 6.00 Build 0)  -->
<svg version="1.1" id="Слой_1" xmlns="http://www.w3.org/2000/svg" xmlns:xlink="http://www.w3.org/1999/xlink" x="0px" y="0px"
	 viewBox="0 0 595.3 841.9" style="enable-background:new 0 0 595.3 841.9;" xml:space="preserve">
<g id="Слой_x0020_1">
	<g id="_1027252336">
		<path d="M404.9,397.9c-25.3,0-41.1-17.6-55.2-34.8c-8.9-10.8-20-31.4-21.7-46.3c-1.3-11.8,1.3-13.2,2.9-19.9
			c-4.3,1.2-16.8,10.8-21.2,13.8c-19.1,13-41.8,32.7-59.5,47.5c-9.4,7.8-18,17.6-27.1,25.9l-51.9,55c-22.3,26.2-34.7,44.1-54.3,71.7
			c-9.9,13.9-18.4,28.3-27.6,43.4c-2.8,4.6-4.7,6.1-4.5,13.6c0.8,27.5,59.5,70.6,93.1,68c16.6-1.3,17.9-16,32.8-38.2
			c4.9-7.3,9.3-14.6,14.5-21.5c11.5-15.3,17.6-24.7,31-41c16.9-20.7,32-37,51-56l18.5-17.5c6.2-5.2,11.8-11.7,18.3-16.7
			c12-9.3,26.2-22.3,40-32L404.9,397.9z"/>
		<path d="M409.9,299.9L409.9,299.9z M395.9,278.9L395.9,278.9z M409.9,299.9c2.7-4.1,6.6-7.1,10.3-10.7l35-38.9
			c2-2.4,3.3-3.1,5.3-5.7c3.7-4.8,27.3-32.3,28.4-36.6c-2.4-0.6-3-0.9-6-1c3.2-6,7.6-8.9,8-14c-3.7-1-4.7-3-9-4
			c-2.4,4.5-5.3,7.9-8,12l-4.8-4.2c-4.2,2.9-6.3,6-9.5,9.9l-44.4,52.6c-3.4,3.9-5.7,5.6-9.1,9.9c-2.5,3.1-7,7.7-10.1,9.8l11-27
			c4.8-10.8,29.1-74.8,30-86h-7c1.1-2.2,2.7-9.9,3-13c-4.5-0.1-4-1-9-1c-1,2-2.8,9.2-3,12c-2.9-0.7-4.6-1.7-7-3L385,241.1
			c-4.1,11.3-23,54.6-29.9,66.1c-1.1,1.9-1.4,2.3-2.5,4.5l-2.7,4.3c0-6-1.9-9.8,0.7-15.4c3.2-7.1,6.8,1.2,9.4-9.6
			c-7.1-3.4-18.3-5.2-23.8,1.2c-4.9,5.7-4.8,17.4-2.8,26.3c6.6,28.4,31.1,58.8,55.5,72.5c6,3.3,16.9,7.6,24.7,2.6
			c8.2-5.3,7.4-11.9,7.4-24.6c-11.8,0-2.4,7.1-12.7,10.4c-6.6,2.2-13.2-3.2-18.3-4.4c4-5.5,46.9-19.5,55.6-22.4
			c7.2-2.3,13.2-4.7,20.4-6.6c28.6-7.9,53.3-15.1,83-22l-1.2-8l13.2,0c-0.1-3.9-1.7-8.3-3-11c-2.9,0.7-7.9,1.7-11,2v-7l-46.8,11.2
			c-22.7,5.6-110.1,33.6-131.2,44.8c-1.8-3.5-3.1-4.5-5-8c19.8-9.5,42.7-17.9,64.7-30.3l51.1-27.9c9.4-5.7,44-25.6,48.2-31.8
			c-2.8-0.7-4.5-2-6-4c4.3-1,6.4-3.1,10-5c-1-3.6-3.3-6.2-6-8c-4.6,1.2-6.4,4.8-11,6c-0.9-3.6-0.6-3.2-3-5
			c-4.9,1.1-19.9,11.4-25.2,14.8C479.8,261.2,419.7,297.7,409.9,299.9z"/>
		<polygon points="330.9,296.9 331.9,296.9 331.1,295.8 		"/>
		<polygon points="404.9,397.9 405.9,397.9 405,396.8 		"/>
	</g>
</g>
</svg>
