<?xml version="1.0" encoding="utf-8"?>
<!-- Generator: Adobe Illustrator 21.0.0, SVG Export Plug-In . SVG Version: 6.00 Build 0)  -->
<svg version="1.1" id="Слой_1" xmlns="http://www.w3.org/2000/svg" xmlns:xlink="http://www.w3.org/1999/xlink" x="0px" y="0px"
	 viewBox="0 0 595.3 841.9" style="enable-background:new 0 0 595.3 841.9;" xml:space="preserve">
<style type="text/css">
	.st0{fill:none;stroke:#000000;stroke-width:7;stroke-miterlimit:10;}
</style>
<g id="Слой_x0020_1">
	<path class="st0" d="M160.3,249.1h39.1c8.1,0,6.3-10.9,6.6-12.2c0.3-2,1.5-5,2.4-6.9l7.2-11.6c15.9-26.2,23.8-51.1-0.8-75.9
		c-5-5.1-12.8-9.5-19.6-11.7c-6.8-2.2-15.8-2.9-22.8-1.7c-3.1,0.5-1.6,0.1-5.2,1.1c-4.1,1.2-7.4,2.2-11.3,4.3
		c-8.9,5-17.2,13-21.5,22.4c-10.1,22.2-4.1,38.3,7.1,57.5c3.8,5.8,10.9,15.4,12.1,22.5c0.6,3.2-1.2,7.7,2.7,10.9
		C157.5,248.7,158.7,249.1,160.3,249.1z"/>
	<path class="st0" d="M153.8,263.2v15.3c0,1.6,1.8,4,3.7,4.9c1.9,0.9,5.4,0.7,8.1,0.7c0.5,1.7,3.8,4.8,5.5,5.8l3.4,1.6
		c3.5,1.2,6.7,1.4,10.3,0.2l1.8-0.7c0.6-0.3,1.4-0.7,2-1c1.7-1,5.2-4.2,5.6-5.9c5,0,7.7,0.6,10.3-2.4c0.5-0.6,1.4-2.2,1.4-3.1v-15.3
		c0-2.2-3.1-5.5-6-5.5h-40.1C156.9,257.6,153.8,261,153.8,263.2z"/>
	<path d="M69,184.2c0,0.9,0.2,1.7,1.7,2.6c1.9,1.1,3.8,1.7,7.6,1.7c3.9,0,25.6,0.1,28-0.2c3-0.4,6.1-2.3,6.1-3.6
		c0-1.1,0.2-1.4-0.5-2.1l-0.6-0.7c-1.2-1.3-4.6-2.2-8.2-2.2c-4,0-25.8-0.2-28.1,0.2c-2.9,0.5-5.9,2.2-5.9,3.7V184.2z"/>
	<path d="M125.8,138.3c0.6-0.6,1.1-1.3,0.6-3c-0.6-2.2-1.5-3.9-4.1-6.6c-2.8-2.8-18-18.2-19.9-19.7c-2.4-1.8-6-2.7-6.9-1.8
		c-0.8,0.8-1.1,0.8-1.2,1.9l0,0.9c0,1.8,1.7,4.8,4.3,7.3c2.8,2.8,18.1,18.4,20,19.8c2.4,1.7,5.7,2.7,6.8,1.6L125.8,138.3z"/>
	<path d="M179.9,114.8c0.9,0,1.7-0.2,2.6-1.7c1.1-1.9,1.7-3.8,1.7-7.6c0-3.9,0.1-25.6-0.2-28c-0.4-3-2.3-6.1-3.6-6.1
		c-1.1,0-1.4-0.2-2.1,0.5l-0.7,0.6c-1.3,1.2-2.2,4.6-2.2,8.2c0,4-0.2,25.8,0.2,28.1c0.5,2.9,2.2,5.9,3.7,5.9H179.9z"/>
	<path d="M292.6,182.6c0-1.5-3-3.2-5.9-3.7c-2.4-0.4-24.1-0.2-28.1-0.2c-3.6,0-6.9,0.9-8.2,2.2l-0.6,0.7c-0.7,0.8-0.5,1-0.5,2.1
		c0,1.3,3.1,3.2,6.1,3.6c2.4,0.3,24.1,0.2,28,0.2c3.8,0,5.6-0.6,7.6-1.7c1.5-0.9,1.7-1.7,1.7-2.6V182.6z"/>
	<path d="M236.2,137.7c1.1,1.1,4.4,0.1,6.8-1.6c2-1.4,17.2-16.9,20-19.8c2.5-2.5,4.3-5.5,4.3-7.3l0-0.9c0-1.1-0.4-1.1-1.2-1.9
		c-0.9-0.9-4.5-0.1-6.9,1.8c-1.9,1.5-17.1,16.9-19.9,19.7c-2.7,2.7-3.6,4.4-4.1,6.6c-0.4,1.7,0,2.4,0.6,3L236.2,137.7z"/>
</g>
</svg>
