<?xml version="1.0" encoding="utf-8"?>
<!-- Generator: Adobe Illustrator 21.0.0, SVG Export Plug-In . SVG Version: 6.00 Build 0)  -->
<svg version="1.1" id="Слой_1" xmlns="http://www.w3.org/2000/svg" xmlns:xlink="http://www.w3.org/1999/xlink" x="0px" y="0px"
	 viewBox="0 0 595.3 841.9" style="enable-background:new 0 0 595.3 841.9;" xml:space="preserve">
<g id="Слой_x0020_1">
	<path d="M241.5,265.7c-0.5,1.2-0.3,2.6,0.2,3.8c0,0.1,0.1,0.2,0.1,0.3c0.1,0.1,0.1,0.2,0.2,0.3c2.4,3.4,7.3,7.5,10.4,10.6
		c0.4,0.3,0.6,0.5,1,0.8c2,1.1,4,1.1,6-0.1c0.5-0.3,3.7-3.5,3.7-3.7l-17.5-17.3C245.6,260.9,242,264.8,241.5,265.7z"/>
	<polygon points="232.6,284.3 236,294.5 248,282.5 241,275.8 	"/>
	<polygon points="214.2,309.4 223,307.5 223.8,306.8 220.3,296.3 216,300.6 	"/>
	<path d="M234.3,296.3c-1.2-3.4-2.5-6.9-3.7-10.3c-0.7,0.7-3.3,3.3-3.5,3.4l3.4,10.3L234.3,296.3z"/>
	<path d="M228.9,301.5l-3.4-10.3l-3.4,3.5c0,0,0.1,0.1,0.1,0.2c1.1,3.3,2.2,6.7,3.3,10C226.5,303.8,227.8,302.4,228.9,301.5z"/>
	<path d="M220.3,296.2C220.3,296.2,220.3,296.2,220.3,296.2z"/>
</g>
</svg>
