<?xml version="1.0" encoding="utf-8"?>
<!-- Generator: Adobe Illustrator 21.0.0, SVG Export Plug-In . SVG Version: 6.00 Build 0)  -->
<svg version="1.1" id="Слой_1" xmlns="http://www.w3.org/2000/svg" xmlns:xlink="http://www.w3.org/1999/xlink" x="0px" y="0px"
	 viewBox="0 0 595.3 841.9" style="enable-background:new 0 0 595.3 841.9;" xml:space="preserve">
<style type="text/css">
	.st0{fill:none;stroke:#000000;stroke-width:10;stroke-miterlimit:10;}
</style>
<path class="st0" d="M175.4,52.6l178.5-0.2l-0.2,99.4l123.4,0.2l2.2,133.3l24,18.3l-1.2,27.9l-3.6,13.1l15.7-7.4l38.9,36.7
	l-28.1,28.8l-45.4-37.6l-3,36.5l-129.1-0.4l-0.7,93.5L171,495.9c-10.8-16.4-34.3-24-79.8-16l-1.1-135.9l42.5-2.2l-0.2-151.2
	l-23.2,10.3l-15.5-16.9l-1.2-88.8C145,97.6,171.7,83.4,175.4,52.6z"/>
<path d="M525.1,366.5"/>
<path d="M1029,341.2"/>
<path d="M514.2,337.3c13,12.2,26,24.5,38.9,36.7c-10.3,9.7-20.7,19.5-31,29.2c-15.5-15.8-30.9-31.5-46.4-47.3
	c6.7-5.8,13.4-11.5,20.1-17.3C502,338.2,508.1,337.7,514.2,337.3z"/>
<path d="M1043.3,339.2"/>
<path d="M528.8,333.5"/>
<path d="M525.6,335.2"/>
</svg>
