<svg xmlns="http://www.w3.org/2000/svg" viewBox="0 0 67.18 13.8">
  <g fill="#fff">
    <path d="M41.87 2.8h2.86V1.34H43.5V.48h5.14v.85H47.3V5.2h1.3v.84h-5.1V5.2h1.23V3.62h-2.86V5.2h1.25v.84h-5.1V5.2h1.27V1.32H38V.48h5.12v.85h-1.25V2.8M67.2 6.05V5.2h-1.3L63.37.47h-3l-2.6 4.7h-1.3v.86h3.9V5.2H59.2l.43-.75h2.92l.4.74H61.6v.84zm-7.12-2.4l1-1.85 1 1.83zM28.24 1.28V.5h9.27v2.17h-.9a1.6 1.6 0 0 0-1.62-1.38h-2.9v1.46h3.3v.82h-3.3v1.6H35a1.67 1.67 0 0 0 1.62-1.35h.9v2.2h-9.26V5.2h1.28V1.3zm-1.7 1.74C27.96 2.44 27.8.66 25.7.5h-7.2v.8h1.27v3.9H18.5v.84h7c1.07 0 2.48-.3 2.54-1.62-.03-.96-1.2-1.3-1.5-1.38zm-4.2-1.7c.34 0 2.38-.1 2.38.74s-2.07.74-2.38.74zm0 3.86V3.63c.37 0 2.78-.1 2.78.8s-2.35.76-2.78.76zm-4.28.84V5.2h-1.28L14.23.47h-3L8.6 5.18H7.32v.86h3.88V5.2h-1.1l.4-.75h2.92l.4.74h-1.36v.84zm-7.1-2.4l1-1.85 1 1.83z"/>
    <path d="M52.22.5h-3.2v2.54h.94V2.5a1.6 1.6 0 0 1 1.64-1.2h.6v3.9h-1.28v.84h5.16V5.2H54.8V1.3h.6a1.57 1.57 0 0 1 1.56 1.15 3.47 3.47 0 0 1 .06.54h.94V.5h-5.73zM5.28 0H.7a.7.7 0 0 0-.7.7v4.6a.73.73 0 0 0 .7.73h4.57A.75.75 0 0 0 6 5.3V.7A.73.73 0 0 0 5.3 0zm.05 3.3v.56a2.14 2.14 0 0 1-.74.6 2.2 2.2 0 0 1-.44.06 2.47 2.47 0 0 1-1.3-.57 2.5 2.5 0 0 0-1.13-.48c-.28 0-.77.5-.94.74l-.15.15v-.57c.26-.28.68-.74 1.08-.74a2.57 2.57 0 0 1 1.3.57 2.56 2.56 0 0 0 1.13.52 1.2 1.2 0 0 0 .3-.06 2.13 2.13 0 0 0 .72-.62l.14-.17zm0-.92H.66V2h4.68zm-3.17 7.4a.33.33 0 0 1 .2.34.62.62 0 0 1 0 .23 2 2 0 0 1-.26.57v.06a.1.1 0 0 0 0 .1h.1A.4.4 0 0 0 2.4 11c.06-.05.1-.05.1-.05h.07s0 .1-.1.14a.48.48 0 0 1-.3.16.78.78 0 0 1-.36.1 1.08 1.08 0 0 1-.86.44.44.44 0 0 1-.37-.14.86.86 0 0 1-.26-.37 1.1 1.1 0 0 1-.08-.4 1.34 1.34 0 0 1 .28-.72 2.6 2.6 0 0 1 .68-.57 1.2 1.2 0 0 1 .62-.22.42.42 0 0 1 .26.06l.1.1a.2.2 0 0 1 0 .12zM1.6 11.2a.5.5 0 0 1-.06-.28.72.72 0 0 1 .06-.34 2.06 2.06 0 0 1 .14-.34 1.2 1.2 0 0 1 .06-.14v-.06a.1.1 0 0 1-.06 0 .64.64 0 0 0-.28.14 3.83 3.83 0 0 0-.3.26 3.12 3.12 0 0 0-.32.4.75.75 0 0 0-.1.4c0 .17.12.26.32.26a.9.9 0 0 0 .54-.3z"/>
    <path d="M3.07 11.1c.2-.24.54-.52.94-.9a2.65 2.65 0 0 1 1-.6c.1 0 .15 0 .18.07a1 1 0 0 1 0 .17.46.46 0 0 1-.1.26 9.76 9.76 0 0 0-.3.48c-.06.06-.1.1-.1.14v.12h.05l.1-.1a1.42 1.42 0 0 0 .22-.2 2.2 2.2 0 0 0 .34-.27 3 3 0 0 0 .3-.23l.26-.14.17-.1a.3.3 0 0 1 .14 0c.06 0 .1.05.17.13a.88.88 0 0 1 .06.23s0 .1-.1.14a2.85 2.85 0 0 0-.44.5.76.76 0 0 0-.14.38c0 .1.06.17.2.17a.88.88 0 0 0 .57-.3c.05 0 .08-.07.1-.07v.06c0 .1-.1.2-.28.34a2.7 2.7 0 0 1-.57.43 1.58 1.58 0 0 1-.4.2.38.38 0 0 1-.23-.08.22.22 0 0 1-.1-.2 1.17 1.17 0 0 1 .18-.57.9.9 0 0 1 .14-.28.44.44 0 0 0 .1-.17.06.06 0 0 0-.07-.06c-.06 0-.14.1-.3.2s-.3.26-.38.3a4.43 4.43 0 0 1-.38.38l-.26.23a.3.3 0 0 1-.2.1s-.06 0-.1-.1a.22.22 0 0 1-.05-.14 1 1 0 0 1 .18-.44 1.57 1.57 0 0 1 .17-.23 1.68 1.68 0 0 1 .1-.17.12.12 0 0 1 0-.1c0-.08-.05-.1-.13-.1a.52.52 0 0 0-.3.14 2.88 2.88 0 0 0-.46.43c-.1.1-.17.2-.28.34s-.17.26-.2.28-.1.1-.14.1-.1-.07-.17-.15a1 1 0 0 1-.1-.48v-.34a1 1 0 0 1 .12-.26 2.53 2.53 0 0 0 .25-.34 2.3 2.3 0 0 1 .34-.37.45.45 0 0 1 .33-.1.17.17 0 0 1 .1 0 .1.1 0 0 1 0 .1c0 .05 0 .1-.1.22a3.07 3.07 0 0 0-.4.43c-.17.2-.26.3-.26.37a.72.72 0 0 0 .2.17zm1.28-1.6a.43.43 0 0 1 .17-.6 1.9 1.9 0 0 1 .54-.28 5.3 5.3 0 0 1 .62-.2 2.14 2.14 0 0 1 .48-.1.5.5 0 0 1 .3.1.16.16 0 0 1 .1.14v.06l-.17.3a1.24 1.24 0 0 0-.55-.08 1.9 1.9 0 0 0-.5.1 2.2 2.2 0 0 0-.55.22 1.32 1.32 0 0 0-.46.34z"/>
    <path d="M10.07 10l-1 .9a.5.5 0 0 1-.1.08H8.9v-.1a1.46 1.46 0 0 1 .17-.2c.1-.08.37-.33.77-.73a5.06 5.06 0 0 0 .62-.74c.2-.25.3-.4.37-.44s.1-.1.23-.1.1 0 .14.07.1 0 .1.06a13.46 13.46 0 0 0-.9 1.27c-.05.1-.13.2-.2.3l.38-.3a3.86 3.86 0 0 1 .48-.34 1 1 0 0 1 .37-.14.28.28 0 0 1 .23.08.36.36 0 0 1 .1.26.78.78 0 0 1-.2.5 3.26 3.26 0 0 1-.4.5l-.47.4a.9.9 0 0 0 .4.08.88.88 0 0 0 .47-.14 1.28 1.28 0 0 0 .28-.26l.1-.06H12a.82.82 0 0 1-.26.37 2.8 2.8 0 0 1-.48.3 2.07 2.07 0 0 1-.54.2 1.74 1.74 0 0 1-.5.1 1.13 1.13 0 0 1-.7-.26l-.33.74-.2.52-.15.26a.22.22 0 0 1-.14.06.15.15 0 0 1-.1-.05.48.48 0 0 1 0-.2 6.07 6.07 0 0 1 .2-.86 2.84 2.84 0 0 1 .6-.74zm-.3 1.23a.56.56 0 0 1 .27-.06 1 1 0 0 1 .34.1 1.8 1.8 0 0 0 .68-.83v-.1a.16.16 0 0 0-.17-.1c-.12 0-.3.1-.52.3a7.4 7.4 0 0 0-.62.7z"/>
    <path d="M13.87 9.78a.32.32 0 0 1 .23.34.67.67 0 0 1-.06.23 1.4 1.4 0 0 1-.23.57v.06s0 .06.07.1.06 0 .1 0l.18-.07c.06-.05.1-.05.1-.05h.08s0 .1-.1.14a.48.48 0 0 1-.3.16.87.87 0 0 1-.36.1 1.12 1.12 0 0 1-.85.44.53.53 0 0 1-.4-.14 1.17 1.17 0 0 1-.23-.37 1.1 1.1 0 0 1-.1-.4 1.34 1.34 0 0 1 .28-.72 2.6 2.6 0 0 1 .68-.57 1.12 1.12 0 0 1 .62-.22.42.42 0 0 1 .26.06l.1.1v.12a.1.1 0 0 1-.07.12zm-.57 1.42a.55.55 0 0 1-.1-.28.75.75 0 0 1 .1-.34 2.06 2.06 0 0 1 .14-.34 1.2 1.2 0 0 1 .06-.14v-.06h-.1a.58.58 0 0 0-.25.14 1.66 1.66 0 0 0-.3.26 1.7 1.7 0 0 0-.32.4.75.75 0 0 0-.1.4c0 .17.12.26.32.26a.9.9 0 0 0 .55-.3z"/>
    <path d="M14.66 11.3l.1-.44a7.64 7.64 0 0 0 .83-.43c.3-.17.44-.34.44-.45s-.06-.1-.14-.1a1.4 1.4 0 0 0-.3 0l-.52.2a1.8 1.8 0 0 0-.28.18.86.86 0 0 0-.2.14c-.1.06-.1.1-.14.1s-.06-.12-.06-.32a.48.48 0 0 1 .1-.28 1.27 1.27 0 0 1 .44-.26 2.8 2.8 0 0 1 1-.26.3.3 0 0 1 .3.23.8.8 0 0 1 .12.44c0 .14-.1.28-.34.5a3.3 3.3 0 0 1-.77.55.64.64 0 0 1 .26.56 7.76 7.76 0 0 0 .75-.43.5.5 0 0 1 .2-.1c.06 0 .06 0 .06.1s-.05.1-.16.2l-.82.5a2.7 2.7 0 0 1-.4.83 4.17 4.17 0 0 1-.65.74 1 1 0 0 1-.57.3c-.06 0-.1 0-.1-.08a.3.3 0 0 1-.07-.23 1 1 0 0 1 .2-.6 3.44 3.44 0 0 1 .8-.75l.33-.26v-.1a.57.57 0 0 0-.1-.37.46.46 0 0 0-.3-.14zm.34 1a3.17 3.17 0 0 1-.5.4l-.3.3a.76.76 0 0 0-.13.37.12.12 0 0 0 0 .1.46.46 0 0 0 .28-.2 1.5 1.5 0 0 0 .37-.46 2.15 2.15 0 0 0 .28-.58z"/>
    <path d="M17.1 10.9c0 .33.14.5.4.5a1.5 1.5 0 0 0 .65-.26 2.75 2.75 0 0 0 .26-.2c.1-.06.12-.1.15-.1s0 0 0 .1a.68.68 0 0 1-.2.28 5.55 5.55 0 0 1-.6.5 1 1 0 0 1-.62.27.73.73 0 0 1-.45-.2.85.85 0 0 1-.17-.58 1.8 1.8 0 0 1 .15-.6 4.66 4.66 0 0 1 .4-.62 2 2 0 0 1 .54-.45 1.24 1.24 0 0 1 .6-.2.38.38 0 0 1 .27.1.32.32 0 0 1 .1.24.84.84 0 0 1-.24.44 2.42 2.42 0 0 1-.57.48 1.67 1.67 0 0 1-.66.27zm0-.24a1 1 0 0 0 .4-.2 2.14 2.14 0 0 0 .4-.3.45.45 0 0 0 .14-.3c0-.1 0-.16-.14-.16s-.28.1-.45.34a1.7 1.7 0 0 0-.35.62z"/>
    <path d="M19.08 11.1c.23-.24.54-.52.94-.9a2.65 2.65 0 0 1 1-.6c.1 0 .14 0 .17.07s0 .1 0 .17a.46.46 0 0 1-.1.26l-.14.26-.17.23a.26.26 0 0 0-.1.13v.12h.06a.5.5 0 0 0 .1-.1l.2-.2a2.2 2.2 0 0 0 .35-.27 3 3 0 0 0 .32-.23l.26-.14.2-.1a.26.26 0 0 1 .14 0s.1.06.14.14a.88.88 0 0 1 .06.23.26.26 0 0 1-.1.14 2.24 2.24 0 0 0-.44.52.76.76 0 0 0-.14.37c0 .1.1.16.2.16a.88.88 0 0 0 .57-.3c.07 0 .1-.07.12-.07h.06v.05a1 1 0 0 1-.3.34 2.7 2.7 0 0 1-.58.42c-.2.1-.3.2-.4.2a.26.26 0 0 1-.2-.1.2.2 0 0 1-.1-.2 1.17 1.17 0 0 1 .16-.56 2.63 2.63 0 0 1 .14-.28.44.44 0 0 0 .1-.17s0-.05-.07-.05a2 2 0 0 0-.3.2c-.18.14-.3.26-.35.3l-.4.38a.92.92 0 0 1-.26.23.25.25 0 0 1-.17.1c-.06 0-.1 0-.1-.1a.22.22 0 0 1-.07-.14.84.84 0 0 1 .2-.45.62.62 0 0 1 .14-.23 1.68 1.68 0 0 1 .1-.17.22.22 0 0 0 0-.1c0-.08-.05-.1-.13-.1a.6.6 0 0 0-.32.14 5.1 5.1 0 0 0-.45.44c-.1.1-.17.2-.28.34s-.17.26-.2.28a.16.16 0 0 1-.14.1c-.05 0-.1-.07-.16-.15a1 1 0 0 1-.1-.47 1.06 1.06 0 0 1 .07-.34.9.9 0 0 1 .1-.27 2.53 2.53 0 0 0 .26-.34 2.3 2.3 0 0 1 .34-.38.45.45 0 0 1 .34-.1h.1a.1.1 0 0 1 0 .08c0 .06 0 .1-.1.23s-.23.23-.4.43-.23.3-.23.37a.55.55 0 0 0 .08.16zm1.28-1.6a.4.4 0 0 1-.06-.26.5.5 0 0 1 .23-.34 1.9 1.9 0 0 1 .54-.28c.23-.1.43-.14.62-.2a2.14 2.14 0 0 1 .47-.1.46.46 0 0 1 .3.1.16.16 0 0 1 .1.14v.06l-.2.3a1.24 1.24 0 0 0-.54-.08 1.73 1.73 0 0 0-.48.1 2 2 0 0 0-.57.22 1.73 1.73 0 0 0-.42.34z"/>
    <path d="M23.48 11.12l-.5.62-.07.06-.1-.2a2.3 2.3 0 0 1 0-.48v-.23a1.87 1.87 0 0 1 .23-.63 7.13 7.13 0 0 1 .43-.68c.17-.2.26-.32.34-.32s.06.06.1.14a.6.6 0 0 1 .05.3.2.2 0 0 1 0 .15.75.75 0 0 1-.14.17 3 3 0 0 0-.4.45.9.9 0 0 0-.16.47.12.12 0 0 1 0 .1 5.26 5.26 0 0 1 .77-.83 3 3 0 0 1 .75-.57 1.3 1.3 0 0 1 .48-.23.25.25 0 0 1 .17.1.57.57 0 0 1 .06.25.94.94 0 0 1-.28.78.42.42 0 0 1-.26-.06c-.1 0-.14-.1-.14-.14a25252.24 25252.24 0 0 0 .06-.06.22.22 0 0 0 .1-.1v-.1a.15.15 0 0 0-.1-.06.83.83 0 0 0-.45.26 3.86 3.86 0 0 0-.5.48.53.53 0 0 1 .27.1 2.06 2.06 0 0 1 .23.27 1.85 1.85 0 0 0 .2.23c.06 0 .1.06.14.06a1.58 1.58 0 0 0 .68-.37.5.5 0 0 1 .17-.12c0 .06-.1.14-.2.3a2.84 2.84 0 0 1-.35.32 1.16 1.16 0 0 1-.7.3.38.38 0 0 1-.35-.13 1 1 0 0 1-.23-.34 1.63 1.63 0 0 0-.14-.26.62.62 0 0 0-.15-.05z"/>
    <path d="M26.96 10.95a2.14 2.14 0 0 1-.3.4 3.6 3.6 0 0 1-.38.3.43.43 0 0 1-.3.15c-.12 0-.2-.1-.3-.26a1.44 1.44 0 0 1-.1-.62 1.13 1.13 0 0 1 .2-.57 2.27 2.27 0 0 1 .43-.6.83.83 0 0 1 .46-.28.4.4 0 0 1 .2.06q.1 0 .1.1a.87.87 0 0 1-.12.25 3.4 3.4 0 0 1-.3.34.94.94 0 0 1-.32.23l-.17.1a.42.42 0 0 0 0 .2.53.53 0 0 0 .06.24.16.16 0 0 0 .15.08.46.46 0 0 0 .26-.1 1.9 1.9 0 0 0 .4-.32l1.14-1.13.1-.1s.18.15.18.38v.07a.1.1 0 0 1 0 .1l-.57.6a.7.7 0 0 0-.23.5q0 .25.17.25a.88.88 0 0 0 .22-.06 1 1 0 0 0 .26-.17.1.1 0 0 0 .1 0 .4.4 0 0 0 .1-.1.06.06 0 0 1 .06.06.83.83 0 0 1-.26.28 2.4 2.4 0 0 1-.5.43.84.84 0 0 1-.46.2.25.25 0 0 1-.17-.1.35.35 0 0 1-.1-.25 2.93 2.93 0 0 1 0-.67z"/>
    <path d="M32.1 12.14l-.15.26a6 6 0 0 1-.45.77 2 2 0 0 1-.28.4.4.4 0 0 1-.28.17.2.2 0 0 1-.2-.17 1.44 1.44 0 0 1-.06-.37 1.48 1.48 0 0 1 .14-.65.7.7 0 0 1 .28-.34 1.48 1.48 0 0 1 .43-.2l.28-.1.52-.9c-.28.22-.45.4-.57.47a1.17 1.17 0 0 1-.3.2.46.46 0 0 1-.3.1.4.4 0 0 1-.22-.13 1.6 1.6 0 0 1-.23-.37.7.7 0 0 1-.1-.37 1 1 0 0 1 .4-.62 3.76 3.76 0 0 1 1-.62 2.44 2.44 0 0 1 1-.26.4.4 0 0 1 .25.14 1 1 0 0 1 .1.5.45.45 0 0 1-.08.24l-1 1.5 1.1-.5h.1c.06 0 .1 0 .1.05s0 .1-.1.1zm-1-.9h.08a1.56 1.56 0 0 0 .54-.27 8 8 0 0 0 .8-.57c.22-.2.33-.37.33-.45a.1.1 0 0 0-.1 0 2 2 0 0 0-.53.17 5.4 5.4 0 0 0-.6.3c-.2.15-.3.27-.43.35a.68.68 0 0 0-.15.4c.02 0 .05.03.05.06zm.56 1a1.08 1.08 0 0 0-.57.4 1 1 0 0 0-.2.64c.05 0 .1 0 .16-.1s.1-.05.1-.1.1-.1.12-.17l.17-.33z"/>
    <path d="M35.44 9.78c.14 0 .2.17.2.34a.62.62 0 0 1 0 .23 2 2 0 0 1-.23.57v.06s0 .06.07.1h.1a.4.4 0 0 0 .16-.07.18.18 0 0 1 .1-.05h.07s0 .1-.1.14a.6.6 0 0 1-.27.16 1 1 0 0 1-.4.1 1.08 1.08 0 0 1-.85.44.47.47 0 0 1-.37-.14.86.86 0 0 1-.25-.37 2.22 2.22 0 0 1-.06-.4 1.14 1.14 0 0 1 .27-.72 2.1 2.1 0 0 1 .65-.57 1.2 1.2 0 0 1 .65-.22.34.34 0 0 1 .23.06c.1.06.1.1.1.1v.12s-.06.1-.06.12zm-.6 1.42a1 1 0 0 1-.06-.28 1.42 1.42 0 0 1 .06-.34l.14-.34a.3.3 0 0 0 .06-.14v-.06h-.06a.82.82 0 0 0-.28.14c-.1.1-.23.2-.3.26a1.5 1.5 0 0 0-.3.4.55.55 0 0 0-.1.4q0 .26.34.26a.85.85 0 0 0 .5-.3z"/>
    <path d="M38.6 11.1a3.68 3.68 0 0 1 .48-.5 5.07 5.07 0 0 1 .54-.44 3.5 3.5 0 0 1 .6-.43.53.53 0 0 1 .3-.1c.12 0 .18.05.18.22a.63.63 0 0 1-.1.28.6.6 0 0 1-.16.23.76.76 0 0 1-.2.23 1.15 1.15 0 0 0-.23.53c0 .1.07.17.2.17a.8.8 0 0 0 .5-.26.5.5 0 0 1 .16-.1c.06 0 .06 0 .06.08s0 .1-.1.17l-.35.3-.43.34a1 1 0 0 1-.4.14.3.3 0 0 1-.2-.1.38.38 0 0 1-.1-.27.85.85 0 0 1 .15-.47 1.28 1.28 0 0 0 .16-.23.42.42 0 0 0 .14-.23.1.1 0 0 0 0-.1h-.1a.67.67 0 0 0-.33.15 3 3 0 0 0-.43.43 1.8 1.8 0 0 0-.28.34c-.1.13-.17.25-.23.27s-.06.1-.1.1-.24-.24-.27-.63v-.17a.75.75 0 0 1 .1-.34c.05-.1.16-.23.27-.4l.34-.4a.36.36 0 0 1 .28-.1c.14 0 .23.05.23.13s-.06.1-.1.17a4.87 4.87 0 0 0-.66.8.53.53 0 0 0 .08.16z"/>
    <path d="M42.84 9.78a.32.32 0 0 1 .23.34v.23a2 2 0 0 1-.26.57v.06s0 .06.07.1.06 0 .1 0l.18-.07c.06-.05.1-.05.1-.05h.08s0 .1-.1.14a.48.48 0 0 1-.3.16.87.87 0 0 1-.36.1 1.08 1.08 0 0 1-.85.44.53.53 0 0 1-.4-.14 1.17 1.17 0 0 1-.23-.37 1.1 1.1 0 0 1-.1-.4 1.34 1.34 0 0 1 .28-.72 2.6 2.6 0 0 1 .68-.57 1.12 1.12 0 0 1 .62-.22.42.42 0 0 1 .26.06l.1.1v.12a.1.1 0 0 1-.1.12zm-.57 1.42a.55.55 0 0 1-.1-.28.75.75 0 0 1 .1-.34 2.06 2.06 0 0 1 .14-.34 1.2 1.2 0 0 1 .07-.14v-.06h-.1a.58.58 0 0 0-.25.14 1.66 1.66 0 0 0-.3.26 1.7 1.7 0 0 0-.32.4.75.75 0 0 0-.1.4c0 .17.12.26.32.26a.9.9 0 0 0 .55-.3z"/>
    <path d="M44.76 12.14l-.14.26a6 6 0 0 1-.45.77 2 2 0 0 1-.28.4c-.12.1-.2.17-.3.17a.2.2 0 0 1-.2-.17 1.44 1.44 0 0 1-.05-.37 1.48 1.48 0 0 1 .14-.65.7.7 0 0 1 .27-.34 1.48 1.48 0 0 1 .43-.2l.28-.1.5-.9c-.27.22-.44.4-.56.47a1.17 1.17 0 0 1-.3.2.46.46 0 0 1-.3.1.4.4 0 0 1-.22-.13 4.15 4.15 0 0 1-.26-.37.73.73 0 0 1 .3-1 3.76 3.76 0 0 1 1-.62 2.44 2.44 0 0 1 1-.26.4.4 0 0 1 .27.13 1 1 0 0 1 .12.5.45.45 0 0 1-.1.24l-1 1.5 1.12-.5h.1c.05 0 .08 0 .08.05s0 .1-.1.1zm-1-.9h.1a1.56 1.56 0 0 0 .53-.27 5.36 5.36 0 0 0 .76-.57c.26-.2.37-.37.37-.45s0 0-.06 0a2 2 0 0 0-.54.17 5.4 5.4 0 0 0-.6.3 3.62 3.62 0 0 0-.43.35.68.68 0 0 0-.14.4c-.02 0 0 .03 0 .06zm.57 1a1.08 1.08 0 0 0-.57.4 1 1 0 0 0-.2.64c.06 0 .1 0 .14-.1a.28.28 0 0 0 .14-.1.6.6 0 0 1 .1-.17l.18-.33z"/>
    <path d="M46.2 10.98a1.28 1.28 0 0 1 .15-.48 2.54 2.54 0 0 1 .43-.54 2.7 2.7 0 0 1 .57-.43 1.37 1.37 0 0 1 .6-.17c.17 0 .26.06.26.2a.68.68 0 0 1-.1.34 2 2 0 0 1-.28.4.42.42 0 0 1-.2.17s-.1 0-.1-.1 0-.12-.1-.12h-.1a1.82 1.82 0 0 0-.27.17 1.2 1.2 0 0 0-.3.34.6.6 0 0 0-.15.3.4.4 0 0 0 .14.3.55.55 0 0 0 .4.1 1.44 1.44 0 0 0 .37-.06 2.1 2.1 0 0 0 .35-.2 1.76 1.76 0 0 0 .34-.23c.08-.06.1-.1.13-.1s.06 0 .06.07-.18.28-.55.6a3.76 3.76 0 0 1-.45.34.83.83 0 0 1-.45.1.58.58 0 0 1-.43-.16 3.1 3.1 0 0 1-.23-.43 1.25 1.25 0 0 1-.1-.42z"/>
    <path d="M48.87 11.1c.23-.24.54-.52.94-.9a2.65 2.65 0 0 1 1-.6c.1 0 .15 0 .18.07s0 .1 0 .17a.46.46 0 0 1-.1.26l-.13.26-.17.23a.26.26 0 0 0-.1.13v.12h.07a.5.5 0 0 0 .1-.1l.2-.2a2.2 2.2 0 0 0 .35-.27 3 3 0 0 0 .3-.23l.27-.14.2-.1a.26.26 0 0 1 .14 0s.1.06.15.14a.88.88 0 0 1 .06.23.26.26 0 0 1-.08.14 2.24 2.24 0 0 0-.45.52.76.76 0 0 0-.14.37c0 .1.1.16.2.16a.88.88 0 0 0 .57-.3c.06 0 .1-.07.1-.07h.07v.05a1 1 0 0 1-.3.34 2.7 2.7 0 0 1-.58.42c-.2.1-.32.2-.4.2a.26.26 0 0 1-.2-.1.2.2 0 0 1-.12-.2 1.17 1.17 0 0 1 .17-.56 2.63 2.63 0 0 1 .14-.28.44.44 0 0 0 .08-.17.06.06 0 0 0-.06-.05 2 2 0 0 0-.3.2c-.18.14-.3.26-.35.3l-.4.38a.92.92 0 0 1-.26.23.25.25 0 0 1-.16.1c-.06 0-.1 0-.1-.1a.22.22 0 0 1-.07-.14.84.84 0 0 1 .2-.45.62.62 0 0 1 .14-.23 1.68 1.68 0 0 1 .12-.17.22.22 0 0 0 0-.1c0-.08-.06-.1-.14-.1a.6.6 0 0 0-.3.14 5.1 5.1 0 0 0-.46.44c-.1.1-.17.2-.28.34s-.17.26-.2.28a.16.16 0 0 1-.14.1c-.06 0-.1-.07-.17-.15a1 1 0 0 1-.1-.47 1.06 1.06 0 0 1 .07-.34.9.9 0 0 1 .1-.27 2.53 2.53 0 0 0 .25-.34 2.3 2.3 0 0 1 .34-.38.45.45 0 0 1 .33-.1h.1a.1.1 0 0 1 0 .08c0 .06 0 .1-.1.23s-.23.23-.4.43-.26.3-.26.37a.72.72 0 0 0 .1.16zm1.28-1.6a.4.4 0 0 1-.06-.26.5.5 0 0 1 .22-.34 1.9 1.9 0 0 1 .54-.28c.23-.1.43-.14.62-.2a2.14 2.14 0 0 1 .48-.1.46.46 0 0 1 .3.1.16.16 0 0 1 .1.14v.06l-.2.3a1.24 1.24 0 0 0-.54-.08 1.73 1.73 0 0 0-.48.1 2 2 0 0 0-.57.22 1.73 1.73 0 0 0-.42.34z"/>
    <path d="M54.9 9.7a.2.2 0 0 0 .07.1c0 .07 0 .1.06.15v.1a1.42 1.42 0 0 1-.23.44 1.13 1.13 0 0 0-.2.33.27.27 0 0 0-.06.2.33.33 0 0 0 .06.2.4.4 0 0 0 .17.06.3.3 0 0 0 .14 0l.15-.1.2-.1.1-.1.1-.06s-.14.2-.4.45-.3.27-.43.36a.67.67 0 0 1-.37.14.4.4 0 0 1-.26-.1.36.36 0 0 1-.12-.25 1.17 1.17 0 0 1 .17-.57c0-.06.06-.14.1-.26-.67.68-1.1 1-1.3 1s-.2-.1-.27-.28a1.6 1.6 0 0 1-.1-.5.9.9 0 0 1 .3-.66 3.4 3.4 0 0 1 .6-.54 7.38 7.38 0 0 1 .67-.37 1.5 1.5 0 0 1 .65-.2.38.38 0 0 1 .23.1.16.16 0 0 1 .1.13.2.2 0 0 1-.12.17v.13zm-2 1.36a.46.46 0 0 0 .1.17h.1a1.77 1.77 0 0 0 .7-.4 3 3 0 0 0 .42-.43.56.56 0 0 0 .23-.34c0-.06 0-.1-.1-.1a1.3 1.3 0 0 0-.63.18 2.12 2.12 0 0 0-.57.43.76.76 0 0 0-.25.5z"/>
    <path d="M56.36 10.46l.45-.85c-.05.07-.2.15-.33.27s-.23.14-.37.23-.23.1-.26.14h-.06s.06-.1.14-.17l.34-.26c.1-.05.23-.22.45-.42l.2-.2a.64.64 0 0 1 .15-.14 1.74 1.74 0 0 1 .14-.17.3.3 0 0 1 .1 0c.17 0 .23.06.23.14a.26.26 0 0 1 0 .15.75.75 0 0 1-.14.17c0 .1-.12.2-.2.37a6.3 6.3 0 0 0-.32.6 1.38 1.38 0 0 1 .34 0 .78.78 0 0 1 .26 0c.34-.6.57-.87.7-.87s.15.1.15.34v.17l-.1.1a2.6 2.6 0 0 0-.38.4 1.82 1.82 0 0 0-.2.46v.1a.2.2 0 0 0 .2.16.7.7 0 0 0 .45-.23l.14-.1c.06-.05.1-.05.1-.05s.07 0 .07.06a1.65 1.65 0 0 1-.27.34 2.74 2.74 0 0 1-.54.43.84.84 0 0 1-.46.24.36.36 0 0 1-.26-.1.4.4 0 0 1-.06-.2 2.38 2.38 0 0 1 .37-1 1.3 1.3 0 0 0-.72.16l-.1.23a1.68 1.68 0 0 0-.12.17 4.17 4.17 0 0 1-.45.77c-.1.17-.22.26-.3.26s-.14-.06-.14-.2a1.16 1.16 0 0 1 .14-.5 3.34 3.34 0 0 1 .3-.55 4.37 4.37 0 0 1 .36-.42z"/>
    <path d="M60.1 12.8a1.34 1.34 0 0 0 .4-.5 2.86 2.86 0 0 0 .2-.64 1.24 1.24 0 0 1-.28.17.75.75 0 0 1-.28.1c-.1 0-.17 0-.2-.12a.3.3 0 0 1-.06-.22 1.7 1.7 0 0 1 .1-.62c-.47.57-.8.85-1 .85s-.16-.05-.25-.2a1 1 0 0 1-.1-.53 1.6 1.6 0 0 1 .16-.65 2.16 2.16 0 0 1 .42-.65.8.8 0 0 1 .48-.28.4.4 0 0 1 .2.05s.06.06.06.1a.7.7 0 0 1-.26.42 2.06 2.06 0 0 1-.48.43h-.1s-.05 0-.05.06a.53.53 0 0 0-.06.23.4.4 0 0 0 .07.2q0 .08.1.08a.85.85 0 0 0 .4-.17 2.53 2.53 0 0 0 .33-.25l1.13-1.13.1-.1s.15.15.18.38v.15l-.6.62a.66.66 0 0 0-.2.48c0 .17.07.26.2.26a.7.7 0 0 0 .44-.2.3.3 0 0 1 .1-.05l.1-.1c.06 0 .06 0 .06.1a2 2 0 0 1-.1.65 3.08 3.08 0 0 1-.44.8 2.6 2.6 0 0 1-.65.7.46.46 0 0 1-.25.1.42.42 0 0 1-.2 0 1.32 1.32 0 0 1-.14-.6.36.36 0 0 1 .2-.27 1.07 1.07 0 0 1 .46-.1.67.67 0 0 0-.1.33z"/>
    <path d="M62.82 10.95a4.94 4.94 0 0 1-.34.4 3.4 3.4 0 0 1-.34.3.54.54 0 0 1-.34.15c-.1 0-.2-.1-.26-.26a1.44 1.44 0 0 1-.1-.62 1.37 1.37 0 0 1 .16-.57 3.3 3.3 0 0 1 .45-.6c.17-.17.3-.28.45-.28a.53.53 0 0 1 .2.06q.1 0 .1.1a.58.58 0 0 1-.15.25 3 3 0 0 1-.28.34.8.8 0 0 1-.34.23c-.06.06-.1.1-.14.1a.42.42 0 0 0 0 .2.53.53 0 0 0 .05.24.15.15 0 0 0 .1.08.53.53 0 0 0 .3-.1 3.12 3.12 0 0 0 .4-.32l1.12-1.13.1-.1s.15.15.18.38v.16l-.57.62a.7.7 0 0 0-.23.48q0 .26.17.26a.88.88 0 0 0 .23-.06l.26-.17h.1l.1-.1v.06a1 1 0 0 1-.22.28 3.38 3.38 0 0 1-.5.43.84.84 0 0 1-.46.2.26.26 0 0 1-.2-.1.57.57 0 0 1-.06-.25 2.93 2.93 0 0 1 .06-.67z"/>
    <path d="M65.6 10.95a4.94 4.94 0 0 1-.34.4 2 2 0 0 1-.37.3.43.43 0 0 1-.32.15c-.1 0-.2-.1-.28-.26a2 2 0 0 1-.1-.62 1.5 1.5 0 0 1 .2-.57 2.36 2.36 0 0 1 .44-.6c.17-.17.3-.28.45-.28a.4.4 0 0 1 .16.06q.1 0 .1.1a.46.46 0 0 1-.12.25 3 3 0 0 1-.28.34 1 1 0 0 1-.34.23.78.78 0 0 0-.14.1.4.4 0 0 0-.06.2c0 .1 0 .18.06.24s.1.08.14.08a.62.62 0 0 0 .28-.1 3.12 3.12 0 0 0 .4-.32l1.1-1.16.1-.1s.15.15.15.38v.06a.1.1 0 0 1 0 .1l-.57.6a.66.66 0 0 0-.2.5q0 .25.17.25a1.28 1.28 0 0 0 .23-.07l.26-.17h.1l.08-.1a.06.06 0 0 1 .06.07 1 1 0 0 1-.23.28 2.54 2.54 0 0 1-.54.44.7.7 0 0 1-.42.2.26.26 0 0 1-.2-.1.35.35 0 0 1-.1-.25 3.27 3.27 0 0 1 .12-.65z"/>
  </g>
</svg>
