<svg xmlns="http://www.w3.org/2000/svg" viewBox="0 0 67.2 6">
  <g fill="#f16821">
    <path d="M41.9 2.8h2.9V1.3h-1.3V.5h5.1v.9h-1.3v3.8h1.3V6h-5.1v-.8h1.2V3.6h-2.8v1.6h1.3V6H38v-.8h1.3V1.3H38V.5h5.1v.9h-1.2v1.4M67.2 6v-.8h-1.3L63.4.5h-3l-2.6 4.7h-1.3V6h3.9v-.8h-1.2l.4-.7h2.9l.4.7h-1.3V6zm-7.1-2.4l1-1.8 1 1.8zM28.2 1.3V.5h9.3v2.2h-.9A1.6 1.6 0 0 0 35 1.3h-2.9v1.5h3.3v.8h-3.3v1.6H35a1.7 1.7 0 0 0 1.6-1.4h.9V6h-9.3v-.8h1.3V1.3zM26.5 3C28 2.4 27.8.7 25.7.5h-7.2v.8h1.3v3.9h-1.3V6h7c1.1 0 2.5-.3 2.5-1.6S26.9 3.1 26.5 3zm-4.2-1.7c.3 0 2.4-.1 2.4.7s-2.1.7-2.4.7zm0 3.9V3.6c.4 0 2.8-.1 2.8.8s-2.4.8-2.8.8zm-4.2.8v-.8h-1.3L14.2.5h-3L8.6 5.2H7.3V6h3.9v-.8h-1.1l.4-.7h2.9l.4.7h-1.3V6zM11 3.6l1-1.8 1 1.8z"/>
    <path d="M52.2.5H49V3h1v-.5a1.6 1.6 0 0 1 1.6-1.2h.6v3.9h-1.3V6h5.2v-.8h-1.3V1.3h.6A1.6 1.6 0 0 1 57 2.5a3.5 3.5 0 0 1 0 .5h1V.5h-5.8zM5.3 0H.7a.7.7 0 0 0-.7.7v4.6a.7.7 0 0 0 .7.7h4.6a.7.7 0 0 0 .7-.7V.7a.7.7 0 0 0-.7-.7zm.1 3.3v.6l-.7.6h-.5A2.5 2.5 0 0 1 2.9 4a2.5 2.5 0 0 0-1.1-.5c-.3 0-.8.5-.9.7H.7v-.4c.3-.3.7-.7 1.1-.7a2.6 2.6 0 0 1 1.2.5 2.6 2.6 0 0 0 1.1.5h.3l.7-.6v-.2zm0-.9H.7V2h4.6z"/>
  </g>
</svg>
