<svg xmlns="http://www.w3.org/2000/svg" viewBox="0 0 72 72"><title>product-stickers</title><path d="M21.8,24.7a2.6,2.6,0,0,1-.8,1.8,2.9,2.9,0,0,1-1.9.6,2.8,2.8,0,0,1-1.5-.4,2.6,2.6,0,0,1-1-1.1,4.1,4.1,0,0,1-.4-1.7v-.7a4.2,4.2,0,0,1,.4-1.8,2.7,2.7,0,0,1,1-1.2,2.9,2.9,0,0,1,1.5-.4,2.7,2.7,0,0,1,1.9.6,2.7,2.7,0,0,1,.8,1.8H20.5a1.8,1.8,0,0,0-.4-1.1,1.5,1.5,0,0,0-1.1-.3,1.4,1.4,0,0,0-1.2.6,2.9,2.9,0,0,0-.4,1.7v.6a3.1,3.1,0,0,0,.4,1.8,1.4,1.4,0,0,0,1.2.6,1.6,1.6,0,0,0,1.1-.3,1.7,1.7,0,0,0,.5-1.1Z" fill="#fff"/><path d="M25,24h-.8v3H22.9V19.9h1.2v3h.7l2.1-3h1.5L26,23.3,28.6,27H27.1Z" fill="#fff"/><path d="M33.7,19.9h1.2V27H33.7V22L30.5,27H29.3V19.9h1.2V25Z" fill="#fff"/><path d="M43,28.8H41.8V27H37.2v1.7H36V26h.6a2.8,2.8,0,0,0,.7-1.2,7.5,7.5,0,0,0,.3-1.8l.2-3.1h4.5V26h.9ZM37.9,26h3V20.9H38.9v2A6.5,6.5,0,0,1,37.9,26Z" fill="#fff"/><path d="M46.1,24h-.8v3H44V19.9h1.2v3H46l2.1-3h1.5l-2.4,3.4L49.8,27H48.3Z" fill="#fff"/><path d="M54.4,25.4H51.7L51.1,27H49.8l2.7-7.1h1.1L56.3,27H55Zm-2.4-1h2.1l-1-2.9Z" fill="#fff"/><path d="M22.6,41.3h1.3a2.3,2.3,0,0,0,1.6-.5,1.8,1.8,0,0,0,.6-1.5,2,2,0,0,0-.5-1.4,1.9,1.9,0,0,0-1.5-.5,2,2,0,0,0-1.4.5,1.7,1.7,0,0,0-.6,1.3H20a3.2,3.2,0,0,1,.5-1.8A3.5,3.5,0,0,1,22,36.1a4.7,4.7,0,0,1,2.1-.5,4.4,4.4,0,0,1,3,1,3.4,3.4,0,0,1,1.1,2.7,2.7,2.7,0,0,1-.5,1.6,3.4,3.4,0,0,1-1.4,1.1,3.1,3.1,0,0,1,1.6,1.1,3.1,3.1,0,0,1,.5,1.8,3.4,3.4,0,0,1-1.2,2.7,4.6,4.6,0,0,1-3.1,1,4.6,4.6,0,0,1-3-1,3.2,3.2,0,0,1-1.2-2.6H22a1.8,1.8,0,0,0,.6,1.4,2.2,2.2,0,0,0,1.5.5,2.2,2.2,0,0,0,1.6-.5,2,2,0,0,0,.6-1.5,2,2,0,0,0-.6-1.6,2.6,2.6,0,0,0-1.8-.5H22.6Z" fill="#fff"/><path d="M30.9,42.3l.7-6.5h6.9v1.8H33.4L33,40.7a4,4,0,0,1,2-.5,3.6,3.6,0,0,1,2.8,1.2,4.6,4.6,0,0,1,1,3.1,4.3,4.3,0,0,1-1.1,3.1,4.1,4.1,0,0,1-3.1,1.2,4.3,4.3,0,0,1-2.9-1,3.6,3.6,0,0,1-1.3-2.6h2.1a2.3,2.3,0,0,0,.7,1.4,2,2,0,0,0,1.4.5,1.8,1.8,0,0,0,1.5-.7,3,3,0,0,0,.5-1.9,2.7,2.7,0,0,0-.6-1.8,2.1,2.1,0,0,0-1.7-.7l-1,.2-.9.6Z" fill="#fff"/><path d="M40.5,38.3a2.6,2.6,0,0,1,.7-1.9,2.7,2.7,0,0,1,4.7,1.9V39a2.6,2.6,0,0,1-.7,1.9,2.7,2.7,0,0,1-2,.7,2.7,2.7,0,0,1-2-.7,2.6,2.6,0,0,1-.8-2ZM42,39a1.4,1.4,0,0,0,.3,1,1.1,1.1,0,0,0,.9.4,1.1,1.1,0,0,0,.9-.4,1.5,1.5,0,0,0,.3-1v-.6a1.4,1.4,0,0,0-.3-1,1.1,1.1,0,0,0-.9-.4,1.1,1.1,0,0,0-.9.4,1.5,1.5,0,0,0-.3,1Zm1.7,8.7L42.6,47l6.2-10,1.1.6Zm3-2.2a2.5,2.5,0,0,1,.8-1.9,3,3,0,0,1,3.9,0,2.6,2.6,0,0,1,.8,2v.6a2.6,2.6,0,0,1-.7,1.9,2.6,2.6,0,0,1-2,.7,2.7,2.7,0,0,1-2-.7,2.6,2.6,0,0,1-.8-1.9Zm1.5.7a1.4,1.4,0,0,0,.3,1,1.2,1.2,0,0,0,.9.4,1.1,1.1,0,0,0,.9-.4,1.5,1.5,0,0,0,.3-1v-.7a1.4,1.4,0,0,0-.3-1,1.2,1.2,0,0,0-1.8,0,1.4,1.4,0,0,0-.3,1Z" fill="#fff"/></svg>