<svg xmlns="http://www.w3.org/2000/svg" viewBox="0 0 72 72"><title>product-stickers</title><path d="M18.9,37.8H15l-.8,2.3H12.4l3.8-10h1.6l3.8,10H19.7Zm-3.4-1.4h2.9L17,32.3Z" fill="#fff"/><path d="M25.6,35.8H24.4v4.3H22.7v-10h1.7v4.2h1l2.9-4.2h2.1L27,34.9l3.7,5.2H28.6Z" fill="#fff"/><path d="M31.6,30.1h1.7v8.6h4.4V30.1h1.7v8.5h1.2v3.8H39V40.1H31.6Z" fill="#fff"/><path d="M48.2,30.1h1.7v10H48.2V33l-4.4,7.1H42.1v-10h1.7v7.1Z" fill="#fff"/><path d="M56.9,40.1V36.4H55l-1.9,3.7H51.2l2.2-4.2a3,3,0,0,1-.8-4.9,4,4,0,0,1,2.6-.8h3.4v10Zm-3.5-6.8a1.8,1.8,0,0,0,.5,1.3,1.9,1.9,0,0,0,1.4.5h1.6V31.5H55.3a2,2,0,0,0-1.4.5A1.7,1.7,0,0,0,53.4,33.2Z" fill="#fff"/></svg>