<?xml version="1.0" encoding="UTF-8"?>
<!DOCTYPE svg PUBLIC "-//W3C//DTD SVG 1.1//EN" "http://www.w3.org/Graphics/SVG/1.1/DTD/svg11.dtd">
<!-- Creator: CorelDRAW X8 -->
<?xml-stylesheet href="9,1.css" type="text/css"?>
<svg xmlns="http://www.w3.org/2000/svg" xml:space="preserve" width="210mm" height="297mm" version="1.1" style="shape-rendering:geometricPrecision; text-rendering:geometricPrecision; image-rendering:optimizeQuality; fill-rule:evenodd; clip-rule:evenodd"
viewBox="0 0 21000 29700"
 xmlns:xlink="http://www.w3.org/1999/xlink">
 <g id="Слой_x0020_1">
  <metadata id="CorelCorpID_0Corel-Layer"/>
  <path class="fil0 str0" d="M13388 3555l1444 -2 -2 804 998 2 18 1078 194 148 -10 226 -29 106 127 -60 315 297 -227 233 -367 -304 -24 295 -1044 -3 -6 756 -1423 9c-87,-133 -277,-194 -645,-129l-9 -1099 344 -18 -2 -1223 -188 83 -125 -137 -10 -718c425,20 641,-95 671,-344z"/>
  <polygon class="fil1 str1" points="15819,6057 15979,5839 16133,5862 16438,6159 16208,6351 "/>
 </g>
</svg>
