<?xml version="1.0" encoding="utf-8"?>
<!-- Generator: Adobe Illustrator 21.0.0, SVG Export Plug-In . SVG Version: 6.00 Build 0)  -->
<svg version="1.1" id="Слой_1" xmlns="http://www.w3.org/2000/svg" xmlns:xlink="http://www.w3.org/1999/xlink" x="0px" y="0px"
	 viewBox="0 0 595.3 841.9" style="enable-background:new 0 0 595.3 841.9;" xml:space="preserve">
<style type="text/css">
	.st0{fill:#ACACAC;}
	.st1{fill:#EC6924;}
</style>
<g>
	<path class="st0" d="M257.6,398.6c0-1.3,0-2.6,0-3.9c6.4,0,12.8,0,19.3,0c0,1.3,0,2.6,0,3.9C270.5,398.6,264.1,398.6,257.6,398.6z"
		/>
	<path class="st0" d="M276.9,411.6c0,1.3,0,2.6,0,3.9c-6.4,0-12.8,0-19.3,0c0-1.3,0-2.6,0-3.9C264.1,411.6,270.5,411.6,276.9,411.6z
		"/>
	<path class="st0" d="M276.9,403.2c0,1.3,0,2.5,0,3.8c-6.4,0-12.8,0-19.3,0c0-1.3,0-2.5,0-3.8C264.1,403.2,270.5,403.2,276.9,403.2z
		"/>
	<path class="st0" d="M251,415.7c-1.2,0-2.1-0.9-2.1-2.2c0-1.2,0.9-2.1,2.1-2.1s2.1,1,2.1,2.2S252.2,415.7,251,415.7z"/>
	<path class="st0" d="M251,407.2c-1.2,0-2.1-0.9-2.1-2.1s0.9-2.1,2.2-2.1c1.2,0,2.1,1,2,2.2C253.1,406.3,252.2,407.2,251,407.2z"/>
	<path class="st0" d="M248.9,396.7c0-1.2,0.9-2.1,2.2-2.1c1.2,0,2,0.9,2,2.1c0,1.2-0.9,2.1-2.1,2.1S248.9,397.9,248.9,396.7z"/>
</g>
<g>
	<path class="st0" d="M286,398.5c0-1.3,0-2.6,0-3.9c9.7,0,19.4,0,29.2,0c0,1.3,0,2.6,0,3.9C305.5,398.5,295.8,398.5,286,398.5z"/>
	<path class="st0" d="M315.2,411.6c0,1.3,0,2.6,0,3.9c-9.7,0-19.4,0-29.2,0c0-1.3,0-2.6,0-3.9C295.7,411.6,305.4,411.6,315.2,411.6z
		"/>
	<path class="st0" d="M315.2,403.1c0,1.3,0,2.6,0,3.9c-9.7,0-19.4,0-29.2,0c0-1.3,0-2.5,0-3.9C295.7,403.1,305.4,403.1,315.2,403.1z
		"/>
</g>
<g>
	<path class="st0" d="M336.1,394.6c3,0,6.1,0,9.1,0c0,3,0,6.1,0,9.1c-3,0-6.1,0-9.1,0C336.1,400.7,336.1,397.6,336.1,394.6z"/>
	<path class="st0" d="M345.2,406.4c0,3,0,6.1,0,9.1c-3,0-6.1,0-9.1,0c0-3,0-6.1,0-9.1C339.1,406.4,342.1,406.4,345.2,406.4z"/>
	<path class="st0" d="M333.4,394.6c0,3,0,6.1,0,9.1c-3,0-6,0-9.1,0c0-3,0-6.1,0-9.1C327.3,394.6,330.3,394.6,333.4,394.6z"/>
	<path class="st0" d="M324.3,415.5c0-3,0-6.1,0-9.1c3,0,6.1,0,9.1,0c0,3,0,6.1,0,9.1C330.3,415.5,327.3,415.5,324.3,415.5z"/>
</g>
<g>
	<path class="st1" d="M257.6,431.5c0-1.3,0-2.6,0-3.9c6.4,0,12.8,0,19.3,0c0,1.3,0,2.6,0,3.9C270.5,431.5,264.1,431.5,257.6,431.5z"
		/>
	<path class="st1" d="M276.9,444.5c0,1.3,0,2.6,0,3.9c-6.4,0-12.8,0-19.3,0c0-1.3,0-2.6,0-3.9C264.1,444.5,270.5,444.5,276.9,444.5z
		"/>
	<path class="st1" d="M276.9,436.1c0,1.3,0,2.5,0,3.8c-6.4,0-12.8,0-19.3,0c0-1.3,0-2.5,0-3.8C264.1,436.1,270.5,436.1,276.9,436.1z
		"/>
	<path class="st1" d="M251,448.6c-1.2,0-2.1-0.9-2.1-2.2c0-1.2,0.9-2.1,2.1-2.1s2.1,1,2.1,2.2S252.2,448.6,251,448.6z"/>
	<path class="st1" d="M251,440.1c-1.2,0-2.1-0.9-2.1-2.1s0.9-2.1,2.2-2.1c1.2,0,2.1,1,2,2.2C253.1,439.2,252.2,440.1,251,440.1z"/>
	<path class="st1" d="M248.9,429.6c0-1.2,0.9-2.1,2.2-2.1c1.2,0,2,0.9,2,2.1c0,1.2-0.9,2.1-2.1,2.1S248.9,430.8,248.9,429.6z"/>
</g>
<g>
	<path class="st1" d="M286,431.4c0-1.3,0-2.6,0-3.9c9.7,0,19.4,0,29.2,0c0,1.3,0,2.6,0,3.9C305.5,431.4,295.8,431.4,286,431.4z"/>
	<path class="st1" d="M315.2,444.5c0,1.3,0,2.6,0,3.9c-9.7,0-19.4,0-29.2,0c0-1.3,0-2.6,0-3.9C295.7,444.5,305.4,444.5,315.2,444.5z
		"/>
	<path class="st1" d="M315.2,436c0,1.3,0,2.6,0,3.9c-9.7,0-19.4,0-29.2,0c0-1.3,0-2.5,0-3.9C295.7,436,305.4,436,315.2,436z"/>
</g>
<g>
	<path class="st1" d="M336.1,427.5c3,0,6.1,0,9.1,0c0,3,0,6.1,0,9.1c-3,0-6.1,0-9.1,0C336.1,433.6,336.1,430.6,336.1,427.5z"/>
	<path class="st1" d="M345.2,439.3c0,3,0,6.1,0,9.1c-3,0-6.1,0-9.1,0c0-3,0-6.1,0-9.1C339.1,439.3,342.1,439.3,345.2,439.3z"/>
	<path class="st1" d="M333.4,427.5c0,3,0,6.1,0,9.1c-3,0-6,0-9.1,0c0-3,0-6.1,0-9.1C327.3,427.5,330.3,427.5,333.4,427.5z"/>
	<path class="st1" d="M324.3,448.4c0-3,0-6.1,0-9.1c3,0,6.1,0,9.1,0c0,3,0,6.1,0,9.1C330.3,448.4,327.3,448.4,324.3,448.4z"/>
</g>
</svg>
