<?xml version="1.0" encoding="utf-8"?>
<!-- Generator: Adobe Illustrator 21.0.0, SVG Export Plug-In . SVG Version: 6.00 Build 0)  -->
<svg version="1.1" id="Наверх" xmlns="http://www.w3.org/2000/svg" xmlns:xlink="http://www.w3.org/1999/xlink" x="0px"
	 y="0px" viewBox="0 0 56 56" style="enable-background:new 0 0 56 56;" xml:space="preserve">
<style type="text/css">
	.st0{fill:none;enable-background:new    ;}
	.st1{fill:#FFFFFF;stroke:#D1D1D1;}
	.st2{fill:#F16821;}
	.st3{font-family:'OpenSans-Semibold';}
	.st4{font-size:13px;}
</style>
<path class="st0" d="z"/>
<g>
	<path id="Прямоугольник_728" class="st1" d="M5.5,0.5h45c2.8,0,5,2.2,5,5v45c0,2.8-2.2,5-5,5h-45c-2.8,0-5-2.2-5-5
		v-45C0.5,2.7,2.7,0.5,5.5,0.5z"/>
	<text id="вверх" transform="matrix(1 0 0 1 9 45.4999)" class="st2 st3 st4">вверх</text>
	<g>
		<g>
			<path class="st2" d="M28,20.3c-0.1,0.1-0.3,0.3-0.3,0.4c-2.9,2.9-5.8,5.8-8.7,8.7c-0.1,0.1-0.4,0.4-0.7,0.4
				c-0.4,0.1-0.9-0.1-1.2-0.6c-0.3-0.4-0.1-0.9,0.1-1.3c0-0.1,0.1-0.1,0.3-0.3c3.2-3.2,6.4-6.4,9.6-9.6c0.7-0.7,1.3-0.7,1.9,0
				c3.2,3.2,6.4,6.4,9.6,9.6c0.3,0.3,0.4,0.6,0.4,0.9c0,0.4-0.1,0.9-0.6,1c-0.4,0.1-0.7,0.1-1.2-0.1c-0.1-0.1-0.3-0.1-0.3-0.3
				c-2.9-2.9-5.8-5.8-8.7-8.7C28.3,20.6,28.2,20.4,28,20.3z"/>
		</g>
		<g>
			<path class="st2" d="M28,12.7c-0.1,0.1-0.3,0.3-0.3,0.4c-2.9,2.9-5.8,5.8-8.7,8.7c-0.1,0.1-0.4,0.4-0.7,0.4
				c-0.4,0.1-0.9-0.1-1.2-0.6c-0.3-0.4-0.1-0.9,0.1-1.3c0-0.1,0.1-0.1,0.3-0.3c3.2-3.2,6.4-6.4,9.6-9.6c0.7-0.7,1.3-0.7,1.9,0
				c3.2,3.2,6.4,6.4,9.6,9.6c0.3,0.3,0.4,0.6,0.4,0.9c0,0.4-0.1,0.9-0.6,1c-0.4,0.1-0.7,0.1-1.2-0.1c-0.1-0.1-0.3-0.1-0.3-0.3
				c-2.9-2.9-5.8-5.8-8.7-8.7C28.3,13,28.2,12.9,28,12.7z"/>
		</g>
	</g>
</g>
</svg>
