<?xml version="1.0" encoding="utf-8"?>
<!-- Generator: Adobe Illustrator 21.0.0, SVG Export Plug-In . SVG Version: 6.00 Build 0)  -->
<svg version="1.1" id="Слой_1" xmlns="http://www.w3.org/2000/svg" xmlns:xlink="http://www.w3.org/1999/xlink" x="0px" y="0px"
	 viewBox="0 0 595.3 841.9" style="enable-background:new 0 0 595.3 841.9;" xml:space="preserve">
<style type="text/css">
	.st0{fill:none;stroke:#D1D1D1;stroke-width:10.63;stroke-miterlimit:10;}
	.st1{fill:#F16821;}
</style>
<path id="Прямоугольник_728" class="st0" d="M58.5,128.6h478.3c29.8,0,53.1,23.4,53.1,53.1v478.3
	c0,29.8-23.4,53.1-53.1,53.1H58.5c-29.8,0-53.1-23.4-53.1-53.1V181.8C5.3,152,28.7,128.6,58.5,128.6z"/>
<path class="st1" d="M119.5,535.2h28c6.9,0,12,0.6,15.3,1.7c3.3,1.2,6.2,3.3,8.6,6.3c2.4,3.1,3.6,6.7,3.6,11c0,3.4-0.7,6.4-2.1,9
	c-1.4,2.6-3.5,4.7-6.4,6.4c3.4,1.1,6.2,3.2,8.4,6.3c2.2,3.1,3.3,6.7,3.3,10.9c-0.5,6.8-2.9,11.8-7.3,15.1
	c-4.4,3.3-10.8,4.9-19.2,4.9h-32.3V535.2z M131.7,565.5h12.9c5.1,0,8.7-0.3,10.6-0.8c1.9-0.6,3.7-1.6,5.2-3.3
	c1.5-1.6,2.3-3.6,2.3-5.9c0-3.8-1.3-6.4-4-7.9s-7.2-2.2-13.7-2.2h-13.3V565.5z M131.7,597h16c6.9,0,11.6-0.8,14.1-2.4
	c2.6-1.6,3.9-4.4,4-8.3c0-2.3-0.7-4.4-2.2-6.4c-1.5-2-3.4-3.2-5.8-3.7c-2.4-0.5-6.2-0.8-11.5-0.8h-14.7V597z M193,535.2h28
	c6.9,0,12,0.6,15.3,1.7c3.3,1.2,6.2,3.3,8.6,6.3c2.4,3.1,3.6,6.7,3.6,11c0,3.4-0.7,6.4-2.1,9c-1.4,2.6-3.5,4.7-6.4,6.4
	c3.4,1.1,6.2,3.2,8.4,6.3c2.2,3.1,3.3,6.7,3.3,10.9c-0.5,6.8-2.9,11.8-7.3,15.1c-4.4,3.3-10.8,4.9-19.2,4.9H193V535.2z M205.1,565.5
	H218c5.1,0,8.7-0.3,10.6-0.8c1.9-0.6,3.7-1.6,5.2-3.3c1.5-1.6,2.3-3.6,2.3-5.9c0-3.8-1.3-6.4-4-7.9s-7.2-2.2-13.7-2.2h-13.3V565.5z
	 M205.1,597h16c6.9,0,11.6-0.8,14.1-2.4c2.6-1.6,3.9-4.4,4-8.3c0-2.3-0.7-4.4-2.2-6.4c-1.5-2-3.4-3.2-5.8-3.7
	c-2.4-0.5-6.2-0.8-11.4-0.8h-14.7V597z M313.7,583.7l12.6,1.7c-2,7.3-5.6,13-10.9,17c-5.4,4.1-12.2,6.1-20.5,6.1
	c-10.5,0-18.7-3.2-24.9-9.7c-6.1-6.4-9.2-15.5-9.2-27.1c0-12,3.1-21.4,9.3-28c6.2-6.7,14.2-10,24.1-10c9.6,0,17.3,3.2,23.4,9.8
	c6.1,6.5,9.1,15.7,9.1,27.5c0,0.7,0,1.8-0.1,3.2h-53.4c0.5,7.9,2.7,13.9,6.7,18.1s9,6.3,14.9,6.3c4.5,0,8.2-1.2,11.4-3.5
	C309.4,592.7,311.9,588.9,313.7,583.7z M273.9,564.3h39.9c-0.5-6-2.1-10.5-4.6-13.5c-3.9-4.7-8.9-7-15-7c-5.6,0-10.2,1.9-14,5.6
	C276.4,553,274.3,558,273.9,564.3z M341.7,634.5v-99.2h11.1v9.4c2.6-3.7,5.6-6.4,8.8-8.2c3.3-1.8,7.3-2.7,11.9-2.7
	c6.1,0,11.5,1.6,16.2,4.7c4.7,3.1,8.2,7.6,10.6,13.3c2.4,5.7,3.6,12,3.6,18.9c0,7.3-1.3,13.9-3.9,19.8c-2.6,5.8-6.4,10.3-11.5,13.5
	s-10.3,4.7-15.8,4.7c-4.1,0-7.7-0.9-10.9-2.6c-3.2-1.7-5.9-3.9-7.9-6.5v35H341.7z M352.7,571.5c0,9.2,1.9,16,5.6,20.4
	c3.7,4.4,8.2,6.6,13.5,6.6c5.4,0,10-2.3,13.8-6.8c3.9-4.6,5.8-11.6,5.8-21.2c0-9.1-1.8-15.9-5.6-20.5c-3.7-4.5-8.2-6.8-13.4-6.8
	c-5.2,0-9.7,2.4-13.7,7.2C354.7,555.3,352.7,562.3,352.7,571.5z M408.7,607l26.2-37.1l-24.2-34.6h14.9l11.3,17
	c2.1,3.2,3.7,5.8,4.9,7.8c2-2.9,3.9-5.5,5.5-7.8l11.9-16.9h14.9l-24.4,34.6l26,37.1h-14.8l-14.8-22.1l-3.4-5.3L423.6,607H408.7z"/>
<path class="st1" d="M297.6,339.1c-1,1-3.2,3.2-3.2,4.3c-30.8,30.8-61.7,61.7-92.5,92.5c-1,1.1-4.3,4.3-7.4,4.3
	c-4.3,1.1-9.6-1-12.8-6.4c-3.2-4.3-1.1-9.6,1-13.8c0-1.1,1.1-1.1,3.2-3.2c34-34,68-68,102-102c7.4-7.4,13.8-7.4,20.2,0
	c34,34,68,68,102,102c3.2,3.2,4.3,6.4,4.3,9.6c0,4.3-1,9.6-6.4,10.6c-4.3,1-7.4,1-12.8-1.1c-1-1-3.2-1-3.2-3.2
	c-30.8-30.8-61.7-61.7-92.5-92.5C300.8,342.3,299.8,340.2,297.6,339.1z"/>
<path class="st1" d="M297.6,258.3c-1,1-3.2,3.2-3.2,4.3c-30.8,30.8-61.7,61.7-92.5,92.5c-1,1.1-4.3,4.3-7.4,4.3
	c-4.3,1.1-9.6-1-12.8-6.4c-3.2-4.3-1.1-9.6,1-13.8c0-1.1,1.1-1.1,3.2-3.2c34-34,68-68,102-102c7.4-7.4,13.8-7.4,20.2,0
	c34,34,68,68,102,102c3.2,3.2,4.3,6.4,4.3,9.6c0,4.3-1,9.6-6.4,10.6c-4.3,1-7.4,1-12.8-1.1c-1-1-3.2-1-3.2-3.2
	c-30.8-30.8-61.7-61.7-92.5-92.5C300.8,261.5,299.8,260.4,297.6,258.3z"/>
</svg>
