<?xml version="1.0" encoding="UTF-8"?>
<!DOCTYPE svg PUBLIC "-//W3C//DTD SVG 1.1//EN" "http://www.w3.org/Graphics/SVG/1.1/DTD/svg11.dtd">
<!-- Creator: CorelDRAW X8 -->
<?xml-stylesheet href="соц сети.css" type="text/css"?>
<svg xmlns="http://www.w3.org/2000/svg" xml:space="preserve" width="210mm" height="297mm" version="1.1" style="shape-rendering:geometricPrecision; text-rendering:geometricPrecision; image-rendering:optimizeQuality; fill-rule:evenodd; clip-rule:evenodd"
viewBox="0 0 21000 29700"
 xmlns:xlink="http://www.w3.org/1999/xlink">
 <g id="Слой_x0020_1">
  <metadata id="CorelCorpID_0Corel-Layer"/>
  <path class="fil0" d="M16223 3874l973 0c24,0 43,19 43,42l0 974c0,23 -19,42 -43,42l-973 0c-24,0 -43,-19 -43,-42l0 -974c0,-23 19,-42 43,-42zm489 889c74,0 148,0 226,0 84,0 148,-63 148,-148 0,-152 0,-300 0,-451 0,-85 -64,-149 -148,-149 -149,0 -300,0 -448,0 -85,0 -149,64 -149,149 0,148 0,299 0,448 0,84 64,148 149,148 74,3 148,3 222,3z"/>
  <path class="fil1" d="M13945 3875l974 0c23,0 42,19 42,42l0 973c0,23 -19,42 -42,42l-974 0c-23,0 -41,-19 -41,-42l0 -973c0,-23 18,-42 41,-42zm357 336c3,0 7,0 7,3 27,7 38,17 41,45 4,28 4,59 4,87 0,14 -4,31 -7,45 -7,17 -18,24 -35,11 -10,-7 -17,-18 -24,-28 -31,-45 -59,-94 -80,-146 -7,-17 -17,-24 -38,-24 -35,0 -70,0 -101,0 -7,0 -10,0 -17,0 -18,3 -21,10 -14,27 3,11 10,21 14,32 41,90 87,173 149,253 42,52 90,94 153,115 38,13 80,13 118,13 31,0 38,-6 41,-38 0,-17 4,-34 11,-48 7,-21 24,-25 41,-11 11,11 21,21 35,32 14,17 31,31 45,48 14,14 35,21 56,21 38,0 73,0 111,-4 10,0 17,-3 28,-6 13,-7 17,-18 10,-28 -3,-11 -10,-25 -17,-31 -25,-28 -49,-53 -73,-80 -11,-11 -21,-21 -31,-32 -14,-13 -14,-27 -4,-45 10,-14 21,-27 31,-41 28,-38 52,-73 80,-111 7,-11 14,-28 17,-42 4,-14 -3,-21 -13,-24 -7,0 -14,-4 -21,-4 -42,0 -84,0 -125,0 -21,0 -24,4 -35,25 -10,24 -24,52 -35,76 -17,31 -38,66 -62,90 -7,7 -14,14 -24,11 -11,-4 -14,-14 -18,-25l0 -3c0,-14 0,-28 0,-42 0,-38 4,-73 0,-111 0,-24 -10,-38 -34,-38 -35,-4 -73,-4 -111,-4 -14,0 -25,4 -39,7 -20,7 -31,14 -34,25z"/>
  <path class="fil0" d="M15080 3875l973 0c24,0 43,19 43,42l0 974c0,23 -19,42 -43,42l-973 0c-24,0 -43,-19 -43,-42l0 -974c0,-23 19,-42 43,-42zm549 561c0,0 5,0 9,0 32,0 59,0 91,0 4,0 4,-4 4,-9 5,-27 10,-54 10,-77 0,-14 4,-27 4,-36 -41,0 -77,0 -118,0 0,-32 0,-59 0,-91 0,-27 18,-41 45,-41 23,0 41,0 69,0 0,0 4,0 4,0 0,-36 0,-72 0,-109 0,0 -4,0 -4,0 -32,0 -64,-4 -100,-4 -32,0 -55,9 -82,27 -36,27 -54,68 -59,113 0,32 0,64 0,96 0,4 0,4 0,13 -32,0 -68,0 -104,0 0,36 0,77 0,118 36,0 68,0 104,0 0,109 0,209 0,313 46,0 86,0 127,0 0,-109 0,-213 0,-313z"/>
  <path class="fil1" d="M16902 4315c39,0 74,0 110,0 0,4 0,7 0,11 0,95 0,194 0,289 0,46 -32,78 -74,78 -149,0 -300,0 -448,0 -46,0 -75,-32 -75,-74 0,-96 0,-194 0,-290 0,-3 0,-7 0,-10 36,0 75,0 110,0 -32,99 -11,183 77,243 71,50 149,46 223,4 42,-25 70,-64 84,-110 14,-49 11,-95 -7,-141z"/>
  <path class="fil1" d="M16712 4523c-74,0 -131,-60 -131,-130 0,-74 60,-131 131,-131 70,0 130,60 130,131 0,70 -56,130 -130,130z"/>
  <path class="fil1" d="M16874 4107c42,0 81,0 124,0 0,42 0,81 0,124 -43,0 -82,0 -124,0 0,-43 0,-82 0,-124z"/>
 </g>
</svg>
