<?xml version="1.0" encoding="utf-8"?>
<!-- Generator: Adobe Illustrator 21.0.0, SVG Export Plug-In . SVG Version: 6.00 Build 0)  -->
<svg version="1.1" id="Слой_1" xmlns="http://www.w3.org/2000/svg" xmlns:xlink="http://www.w3.org/1999/xlink" x="0px" y="0px"
	 viewBox="0 0 595.3 841.9" style="enable-background:new 0 0 595.3 841.9;" xml:space="preserve">
<style type="text/css">
	.st0{opacity:0.88;fill:#F16821;}
	.st1{fill:#FFFFFF;}
</style>
<path class="st0" d="M183,238.8c9.9,0,18,8.1,18,18c0,9.9-8.1,18-18,18c-9.9,0-18-8.1-18-18C165,246.9,173.1,238.8,183,238.8z"/>
<path class="st1" d="M174.2,262.1l-1.3-1.8l-2.5,0.7l-0.3,2.2l-0.7,0.2l0.8-6.9l0.6-0.2l4.1,5.6L174.2,262.1z M172.5,259.8l-1.2-1.7
	c-0.2-0.2-0.3-0.5-0.5-0.8c0,0.3,0,0.6,0,1l-0.2,2.1L172.5,259.8z"/>
<polygon id="_x31_" class="st1" points="177.2,256.4 178,256.2 176.6,258.9 179.4,260.8 178.6,261 175.8,259.2 176.4,261.6 
	175.7,261.7 174.5,257.1 175.2,256.9 175.8,259.1 "/>
<polygon id="_x32_" class="st1" points="185.2,261 184.5,261.1 184.1,259.5 180.2,260.5 179,255.9 179.7,255.7 180.8,259.7 
	183.3,259.1 182.2,255 182.9,254.9 184,258.9 184.6,258.7 "/>
<polygon id="_x33_" class="st1" points="185.1,254.3 185.9,257.2 186.1,258 186.1,258.2 187.6,253.6 188.5,253.4 189.7,258 
	189,258.2 188.3,255.4 188.2,254.8 188.1,254.2 186.6,258.9 185.7,259.1 184.5,254.4 "/>
<path id="_x34_" class="st1" d="M191.4,257.6l-0.8,0.2l0.8-2.3c-0.4,0-0.7-0.1-0.9-0.3c-0.3-0.2-0.4-0.4-0.5-0.8
	c-0.1-0.4-0.1-0.8,0.2-1.1c0.2-0.3,0.6-0.5,1.1-0.7l2.1-0.5l1.2,4.7l-0.7,0.2l-0.5-1.9l-1.2,0.3L191.4,257.6z M190.7,254.3
	c0.1,0.5,0.6,0.7,1.4,0.5l1.1-0.3l-0.4-1.6l-1.3,0.3C190.8,253.4,190.5,253.8,190.7,254.3z"/>
<path id="_x35_" class="st1" d="M196.2,254.5l-0.5,0.1l-1.4-4.5l0.9-0.2L196.2,254.5z M195.8,255.9c-0.1-0.4,0-0.6,0.3-0.7
	c0.2,0,0.3,0,0.4,0.1c0.1,0.1,0.2,0.2,0.3,0.4c0,0.2,0,0.3,0,0.5c-0.1,0.1-0.2,0.2-0.3,0.3c-0.1,0-0.3,0-0.4-0.1
	C196,256.3,195.9,256.1,195.8,255.9z"/>
<path class="st0" d="M226.8,239c9.9,0,18,8.1,18,18c0,9.9-8.1,18-18,18c-9.9,0-18-8.1-18-18C208.8,247,216.9,239,226.8,239z"/>
<path class="st1" d="M213.5,257.3c-0.7,0.2-1.2,0.5-1.4,1.1c-0.3,0.5-0.3,1.2-0.1,2c0.2,0.8,0.6,1.4,1,1.7c0.5,0.3,1.1,0.4,1.8,0.3
	c0.4-0.1,0.9-0.3,1.4-0.6l0.2,0.6c-0.4,0.3-0.9,0.5-1.5,0.7c-0.9,0.3-1.7,0.1-2.4-0.3c-0.6-0.4-1.1-1.1-1.4-2.2
	c-0.2-0.7-0.2-1.2-0.1-1.8c0.1-0.5,0.4-1,0.8-1.4c0.4-0.4,0.9-0.7,1.5-0.8c0.7-0.2,1.2-0.2,1.8-0.1l-0.1,0.7
	C214.5,257.2,214,257.2,213.5,257.3z"/>
<polygon id="_x31__1_" class="st1" points="219.2,256.9 220,256.7 218.6,259.5 221.4,261.3 220.5,261.5 217.8,259.7 218.4,262.1 
	217.7,262.2 216.5,257.6 217.2,257.4 217.8,259.7 "/>
<polygon id="_x32__1_" class="st1" points="221.7,256.2 222.4,259.2 222.6,259.9 222.7,260.2 224.1,255.6 225,255.3 226.2,260 
	225.6,260.2 224.8,257.3 224.7,256.8 224.6,256.2 223.1,260.8 222.2,261 221,256.4 "/>
<path id="_x33__1_" class="st1" d="M232.2,260.1l-0.7,0.2l-0.4-1.6l-3.2,0.9l0.4,1.6l-0.7,0.2l-0.6-2.2l0.4-0.1
	c0.3-0.6,0.4-1.3,0.4-2c0-0.8-0.1-1.5-0.3-2.3l2.4-0.6l1,4.1l0.7-0.2L232.2,260.1z M230.3,258.3l-0.9-3.5l-1,0.3
	c0.1,0.6,0.2,1.3,0.1,2c0,0.7-0.1,1.3-0.3,1.8L230.3,258.3z"/>
<polygon id="_x34__1_" class="st1" points="234.2,252.9 235,252.7 233.5,255.5 236.4,257.3 235.5,257.5 232.8,255.7 233.4,258.1 
	232.7,258.3 231.5,253.6 232.2,253.4 232.8,255.7 "/>
<path id="_x35__1_" class="st1" d="M240.1,256.3l-0.3-0.6h-0.1c-0.1,0.4-0.3,0.6-0.5,0.8c-0.2,0.2-0.5,0.3-0.8,0.4
	c-0.5,0.1-0.9,0.1-1.2-0.1c-0.3-0.2-0.5-0.5-0.7-0.9c-0.3-0.9,0.4-1.6,1.8-2.1l0.8-0.2l-0.1-0.3c-0.1-0.4-0.2-0.6-0.4-0.7
	c-0.2-0.1-0.5-0.2-0.8-0.1c-0.4,0.1-0.8,0.3-1.2,0.7l-0.4-0.5c0.2-0.2,0.4-0.3,0.7-0.5c0.3-0.1,0.5-0.3,0.8-0.3c0.5-0.2,1-0.1,1.3,0
	c0.3,0.2,0.6,0.5,0.7,1.1l0.8,3.2L240.1,256.3z M238.4,256.2c0.4-0.1,0.7-0.3,0.9-0.6c0.2-0.3,0.2-0.7,0.1-1.1l-0.1-0.4l-0.7,0.2
	c-0.6,0.2-1,0.3-1.2,0.6s-0.3,0.5-0.2,0.8c0.1,0.3,0.2,0.4,0.4,0.5C237.9,256.3,238.1,256.3,238.4,256.2z"/>
<path id="_x36_" class="st1" d="M242.2,253.9l-0.5,0.1l-1.4-4.5l0.9-0.2L242.2,253.9z M241.9,255.3c-0.1-0.4,0-0.6,0.3-0.7
	c0.2,0,0.3,0,0.4,0.1s0.2,0.2,0.3,0.4c0,0.2,0,0.3,0,0.5c-0.1,0.1-0.2,0.2-0.3,0.3c-0.1,0-0.3,0-0.4,0
	C242,255.7,241.9,255.6,241.9,255.3z"/>
</svg>
